<svg width="40" height="40" viewBox="0 0 40 40" fill="none" xmlns="http://www.w3.org/2000/svg">
<circle cx="20" cy="20" r="20" fill="#F6AB30"/>
<path d="M18.6984 39.9583L9.24045 30.5003L7.7478 18.4401L27.013 9.02686L39.9088 21.9228C38.9412 32.0664 30.3971 40 20 40C19.5627 40 19.1287 39.986 18.6984 39.9583Z" fill="black" fill-opacity="0.3"/>
<path d="M27.7204 15.2923C28.1925 16.3306 29.2539 16.9176 30.3276 16.8369C30.9101 16.7961 31.4565 17.113 31.6983 17.6448L32.1205 18.5733C32.4391 19.274 32.1307 20.0967 31.4301 20.4153L13.7031 28.4759C13.0025 28.7945 12.1798 28.4861 11.8612 27.7854L11.439 26.8569C11.1972 26.3251 11.3176 25.7049 11.7312 25.2928C12.502 24.5348 12.7574 23.3491 12.2852 22.3108C11.8112 21.2683 10.7498 20.6813 9.67188 20.7639C9.0894 20.8047 8.54292 20.4878 8.3011 19.956L7.87888 19.0274C7.56222 18.331 7.86871 17.504 8.56934 17.1855L26.2963 9.1249C26.9969 8.80631 27.8216 9.11896 28.1382 9.81536L28.5605 10.7439C28.8023 11.2757 28.6819 11.8958 28.2683 12.308C27.5017 13.0641 27.2463 14.2498 27.7204 15.2923Z" fill="#F14F4A"/>
<path d="M28.4804 24.8009C28.4804 25.9415 29.2037 26.9151 30.2145 27.2861C30.7616 27.4901 31.1279 28.0047 31.1279 28.589V29.609C31.1279 30.3787 30.5066 30.9999 29.7369 30.9999H10.2634C9.49375 30.9999 8.87244 30.3787 8.87244 29.609V28.589C8.87244 28.0047 9.23874 27.4901 9.78585 27.2861C10.8013 26.9151 11.5246 25.9415 11.5246 24.8009C11.5246 23.6557 10.8013 22.682 9.78585 22.311C9.23874 22.107 8.87244 21.5924 8.87244 21.0082V19.9881C8.87244 19.2231 9.49375 18.5972 10.2634 18.5972H29.7369C30.5066 18.5972 31.1279 19.2231 31.1279 19.9881V21.0082C31.1279 21.5924 30.7616 22.107 30.2145 22.311C29.2037 22.682 28.4804 23.6557 28.4804 24.8009Z" fill="#8DD1FE"/>
<path d="M26.5609 20.9892V28.6069C26.5609 28.9643 26.2712 29.2509 25.917 29.2509H14.0846C13.7272 29.2509 13.4407 28.9643 13.4407 28.6069V20.9892C13.4407 20.6318 13.7272 20.3452 14.0846 20.3452H25.917C26.2712 20.3452 26.5609 20.6318 26.5609 20.9892Z" fill="#E9EDF4"/>
<path d="M23.3166 28.0316H16.9611C16.7478 28.0316 16.5747 27.8586 16.5747 27.6452C16.5747 27.4319 16.7478 27.2588 16.9611 27.2588H23.3166C23.5299 27.2588 23.703 27.4319 23.703 27.6452C23.703 27.8586 23.5299 28.0316 23.3166 28.0316Z" fill="#D2DBEA"/>
<path d="M24.9076 22.3378H15.3692C15.1559 22.3378 14.9828 22.1647 14.9828 21.9514C14.9828 21.738 15.1559 21.5649 15.3692 21.5649H24.9076C25.1209 21.5649 25.294 21.738 25.294 21.9514C25.294 22.1647 25.1209 22.3378 24.9076 22.3378Z" fill="#D2DBEA"/>
</svg>
