<svg width="61" height="60" viewBox="0 0 61 60" fill="none" xmlns="http://www.w3.org/2000/svg">
<circle cx="30.5" cy="30" r="30" fill="#E68C8E"/>
<path d="M33.1755 59.8823L12.6722 39.3837L12.6784 35.6362L23.9256 24.3699L29.0878 29.5296L38.0008 20.6166L46.9172 29.5286L48.3223 28.1234L59.1452 38.941C55.5956 50.3251 45.4467 58.7978 33.1755 59.8823Z" fill="black" fill-opacity="0.3"/>
<rect x="24.8698" y="20.6167" width="13.1368" height="18.7669" fill="#F2FAE3"/>
<path d="M33.63 24.645V35.3553H31.8633V26.7416L29.2462 27.6286V26.1698L33.4175 24.645H33.63Z" fill="#E68C8E"/>
<rect x="12.6713" y="24.3701" width="11.2602" height="15.0135" fill="#F2FAE3"/>
<path d="M21.2231 35.3673V36.2726H15.5468V35.4804L18.3879 32.3177C18.7374 31.9285 19.0074 31.5989 19.198 31.3289C19.3926 31.0549 19.5276 30.8107 19.603 30.5963C19.6824 30.3779 19.7221 30.1555 19.7221 29.9292C19.7221 29.6433 19.6626 29.3852 19.5435 29.1549C19.4283 28.9206 19.2576 28.7339 19.0312 28.595C18.8049 28.456 18.5309 28.3865 18.2092 28.3865C17.8241 28.3865 17.5024 28.4619 17.2443 28.6128C16.9902 28.7598 16.7996 28.9662 16.6725 29.2323C16.5455 29.4983 16.4819 29.8041 16.4819 30.1496H15.38C15.38 29.6611 15.4872 29.2144 15.7016 28.8094C15.9161 28.4044 16.2337 28.0827 16.6547 27.8445C17.0756 27.6023 17.5938 27.4811 18.2092 27.4811C18.7572 27.4811 19.2258 27.5784 19.6149 27.773C20.0041 27.9636 20.3019 28.2336 20.5084 28.5831C20.7188 28.9285 20.8241 29.3335 20.8241 29.7981C20.8241 30.0523 20.7804 30.3104 20.693 30.5725C20.6096 30.8306 20.4925 31.0887 20.3416 31.3468C20.1947 31.6049 20.0219 31.859 19.8234 32.1092C19.6288 32.3593 19.4204 32.6055 19.198 32.8478L16.875 35.3673H21.2231Z" fill="#E68C8E"/>
<rect x="38.9448" y="28.1235" width="9.38346" height="11.2601" fill="#F2FAE3"/>
<path d="M42.953 33.3784H43.4973C43.764 33.3784 43.9839 33.3344 44.1571 33.2464C44.333 33.1557 44.4636 33.0334 44.5488 32.8794C44.6368 32.7227 44.6808 32.5468 44.6808 32.3516C44.6808 32.1207 44.6423 31.9269 44.5653 31.7702C44.4884 31.6135 44.3729 31.4953 44.2189 31.4156C44.065 31.3358 43.8698 31.296 43.6334 31.296C43.419 31.296 43.2293 31.3386 43.0643 31.4238C42.9021 31.5063 42.7743 31.6245 42.6808 31.7784C42.5901 31.9324 42.5448 32.1138 42.5448 32.3227H41.7819C41.7819 32.0176 41.8589 31.7399 42.0128 31.4898C42.1668 31.2396 42.3826 31.0403 42.6602 30.8919C42.9406 30.7434 43.265 30.6692 43.6334 30.6692C43.9963 30.6692 44.3138 30.7338 44.5859 30.863C44.8581 30.9895 45.0698 31.1791 45.221 31.4321C45.3722 31.6822 45.4478 31.9942 45.4478 32.3681C45.4478 32.5193 45.412 32.6815 45.3406 32.8547C45.2718 33.0251 45.1632 33.1846 45.0148 33.333C44.8691 33.4815 44.6794 33.6038 44.4457 33.7C44.2121 33.7935 43.9317 33.8402 43.6045 33.8402H42.953V33.3784ZM42.953 34.0052V33.5475H43.6045C43.9867 33.5475 44.3028 33.5928 44.553 33.6835C44.8031 33.7743 44.9997 33.8952 45.1426 34.0464C45.2883 34.1976 45.39 34.3639 45.4478 34.5454C45.5083 34.7241 45.5385 34.9027 45.5385 35.0814C45.5385 35.3618 45.4904 35.6106 45.3942 35.8278C45.3007 36.045 45.1674 36.2292 44.9942 36.3804C44.8237 36.5316 44.6231 36.6456 44.3921 36.7226C44.1612 36.7996 43.9097 36.8381 43.6375 36.8381C43.3764 36.8381 43.1303 36.801 42.8994 36.7267C42.6712 36.6525 42.4692 36.5453 42.2932 36.4051C42.1173 36.2622 41.9798 36.0876 41.8809 35.8814C41.7819 35.6725 41.7324 35.4347 41.7324 35.168H42.4953C42.4953 35.377 42.5406 35.5598 42.6314 35.7165C42.7248 35.8732 42.8568 35.9955 43.0272 36.0835C43.2004 36.1687 43.4039 36.2113 43.6375 36.2113C43.8712 36.2113 44.0719 36.1714 44.2396 36.0917C44.41 36.0092 44.5406 35.8855 44.6313 35.7206C44.7248 35.5556 44.7715 35.3481 44.7715 35.0979C44.7715 34.8478 44.7193 34.643 44.6148 34.4835C44.5103 34.3213 44.3619 34.2017 44.1695 34.1248C43.9798 34.045 43.7557 34.0052 43.4973 34.0052H42.953Z" fill="#E68C8E"/>
</svg>
