<svg width="61" height="60" viewBox="0 0 61 60" fill="none" xmlns="http://www.w3.org/2000/svg">
<circle cx="30.5" cy="30" r="30" fill="#978BB2"/>
<path d="M36.8614 59.3242L18.7778 41.3103L19.464 32.4224L22.826 35.7864L25.5872 32.0768L20.6075 19.9307L30.3029 29.4806L30.2513 16.8164L38.4184 24.9563L40.5776 20.1235L47.1656 26.7121L47.7702 26.1016L59.4057 37.6792L59.0059 39.3752C55.7155 49.3859 47.2989 57.0706 36.8614 59.3242Z" fill="#6A627D"/>
<path d="M39.0168 31.455C40.1921 31.455 42.798 29.6842 44.6544 28.3526C44.9487 28.1421 45.3506 28.1768 45.6068 28.4315C45.8618 28.6858 45.895 29.0888 45.6841 29.3823C41.4388 34.8117 42.2376 41.0455 42.2376 41.0455C42.2531 41.1322 42.2614 41.2202 42.2614 41.313C33.4841 43.8071 27.5555 43.8071 18.7789 41.313C18.7789 41.2202 18.7872 41.1319 18.8027 41.0455C18.8027 41.0455 19.6019 34.8128 15.3558 29.3823C15.1453 29.0884 15.1789 28.6858 15.4339 28.4315C15.6886 28.176 16.0912 28.1417 16.3848 28.3526C18.242 29.6846 20.8478 31.455 22.0232 31.455C22.2556 31.455 22.3314 31.3852 22.3847 31.3188C22.8657 30.7271 22.7348 28.6526 21.9983 25.1552C21.9251 24.8088 22.1077 24.4605 22.433 24.3235C22.7586 24.1858 23.1359 24.2986 23.3325 24.5914C25.8681 28.3722 27.0288 29.1658 27.5555 29.1658C28.3015 29.1658 29.061 27.018 29.8149 22.7814C29.8761 22.4433 30.1606 22.1969 30.4983 22.1773V22.1732C30.5051 22.1732 30.513 22.1747 30.5202 22.1747C30.5273 22.1747 30.5341 22.1732 30.5413 22.1732V22.1773C30.8801 22.1969 31.1654 22.4433 31.2254 22.7814C31.9785 27.018 32.7373 29.1658 33.4841 29.1658C34.0104 29.1658 35.1718 28.3726 37.7078 24.5914C37.9048 24.2986 38.2821 24.1858 38.607 24.3235C38.9319 24.4605 39.1145 24.8088 39.0417 25.1552C38.3048 28.6526 38.175 30.7271 38.6549 31.3188C38.7093 31.3848 38.784 31.455 39.0168 31.455Z" fill="#F2FAE3"/>
<path d="M30.5202 21.2795C31.7526 21.2795 32.7517 20.2804 32.7517 19.048C32.7517 17.8155 31.7526 16.8165 30.5202 16.8165C29.2878 16.8165 28.2887 17.8155 28.2887 19.048C28.2887 20.2804 29.2878 21.2795 30.5202 21.2795Z" fill="#F2FAE3"/>
<path d="M21.1003 23.6036C22.1273 23.6036 22.9598 22.7711 22.9598 21.7442C22.9598 20.7172 22.1273 19.8847 21.1003 19.8847C20.0734 19.8847 19.2408 20.7172 19.2408 21.7442C19.2408 22.7711 20.0734 23.6036 21.1003 23.6036Z" fill="#F2FAE3"/>
<path d="M39.7846 23.6036C40.8116 23.6036 41.6441 22.7711 41.6441 21.7442C41.6441 20.7172 40.8116 19.8847 39.7846 19.8847C38.7577 19.8847 37.9252 20.7172 37.9252 21.7442C37.9252 22.7711 38.7577 23.6036 39.7846 23.6036Z" fill="#F2FAE3"/>
<path d="M13.925 28.2955C14.6173 28.2955 15.1785 27.7343 15.1785 27.042C15.1785 26.3498 14.6173 25.7886 13.925 25.7886C13.2327 25.7886 12.6715 26.3498 12.6715 27.042C12.6715 27.7343 13.2327 28.2955 13.925 28.2955Z" fill="#F2FAE3"/>
<path d="M47.0749 28.2955C47.7672 28.2955 48.3284 27.7343 48.3284 27.042C48.3284 26.3498 47.7672 25.7886 47.0749 25.7886C46.3826 25.7886 45.8214 26.3498 45.8214 27.042C45.8214 27.7343 46.3826 28.2955 47.0749 28.2955Z" fill="#F2FAE3"/>
</svg>
