<svg width="61" height="60" viewBox="0 0 61 60" fill="none" xmlns="http://www.w3.org/2000/svg">
<circle cx="30.5" cy="30" r="30" fill="#3986B9"/>
<path d="M33.2826 59.8726L18.2787 44.8603L24.1694 37.5373L20.2273 33.5931L28.2651 22.7522L32.5812 27.0802L40.6775 17.0154L59.8592 36.1971C57.1893 48.9091 46.4719 58.6595 33.2826 59.8726Z" fill="#285E82"/>
<path d="M36.2038 37.1608C37.2972 36.6339 36.8858 35.2721 37.8344 34.5149C38.7833 33.7575 40.0197 34.4604 40.7769 33.5113C41.5339 32.5627 40.5759 31.514 41.1029 30.4208C41.6298 29.3279 43.0471 29.4242 43.3168 28.2413C43.5867 27.0576 42.2642 26.5301 42.2642 25.3159C42.2642 24.1017 43.5867 23.5742 43.3168 22.3904C43.0471 21.2076 41.6298 21.3038 41.103 20.211C40.576 19.1178 41.5339 18.0691 40.777 17.1205C40.0197 16.1714 38.7833 16.8744 37.8344 16.1169C36.8858 15.3597 37.2973 13.9979 36.2039 13.471C35.111 12.9444 34.3027 14.1127 33.1198 13.8434C31.9363 13.5739 31.7136 12.1714 30.4999 12.1714C29.2861 12.1714 29.0634 13.5741 27.88 13.8435C26.6971 14.1128 25.8888 12.9445 24.7959 13.4711C23.7025 13.998 24.1139 15.3598 23.1654 16.117C22.2165 16.8744 20.9801 16.1715 20.2228 17.1206C19.4659 18.0692 20.4238 19.1178 19.8968 20.211C19.37 21.3039 17.9526 21.2076 17.6829 22.3905C17.413 23.5743 18.7355 24.1018 18.7355 25.316C18.7355 26.5301 17.413 27.0577 17.6829 28.2415C17.9526 29.4243 19.3699 29.328 19.8967 30.4209C20.4238 31.5141 19.4658 32.5628 20.2227 33.5114C20.98 34.4604 22.2164 33.7575 23.1653 34.515C24.1139 35.2721 23.7024 36.6339 24.7958 37.1608C25.8887 37.6875 26.6971 36.5192 27.88 36.7885C29.0634 37.058 29.2861 38.4606 30.4999 38.4606C31.7136 38.4606 31.9363 37.058 33.1198 36.7885C34.3026 36.5192 35.1109 37.6874 36.2038 37.1608Z" fill="#F2FAE3"/>
<path d="M30.4998 17.9118C26.4171 17.9118 23.0956 21.2333 23.0956 25.316C23.0956 29.3987 26.4171 32.7203 30.4998 32.7203C34.5825 32.7203 37.904 29.3987 37.904 25.316C37.904 21.2333 34.5825 17.9118 30.4998 17.9118Z" fill="#285E82"/>
<path d="M27.3868 38.9538C25.997 38.565 25.0179 40.0235 23.718 39.3967C22.4182 38.7701 23.0894 36.8565 21.7796 36.2512C21.5328 36.1371 21.1207 36.0265 21.1207 36.0265L18.2783 44.9105L23.3953 44.6291L27.3987 47.8285L29.7546 40.465C29.7546 40.465 28.4432 39.2493 27.3868 38.9538Z" fill="#F2FAE3"/>
<path d="M39.22 36.2512C37.9103 36.8567 38.5813 38.7701 37.2816 39.3967C35.9816 40.0234 35.0026 38.565 33.6129 38.9538C32.5564 39.2493 31.245 40.465 31.245 40.465L33.6009 47.8285L37.6043 44.6291L42.7213 44.9105L39.879 36.0265C39.879 36.0265 39.4668 36.1371 39.22 36.2512Z" fill="#F2FAE3"/>
</svg>
