<svg width="40" height="40" viewBox="0 0 40 40" fill="none" xmlns="http://www.w3.org/2000/svg">
<g clip-path="url(#clip0_2754_5146)">
<circle cx="20" cy="20.0005" r="20" fill="#F6AB30"/>
<path d="M21.2471 39.9622L10.2996 29.0148L28.2919 11.0225L39.8394 22.5473C38.6398 31.9856 30.8622 39.3707 21.2471 39.9622Z" fill="black" fill-opacity="0.3"/>
<path d="M9.62866 27.7735C9.62866 28.6139 10.3098 29.2951 11.1502 29.2951H27.2247C28.0651 29.2951 28.7463 28.6139 28.7463 27.7735V14.7534H9.62866V27.7735Z" fill="white"/>
<path d="M13.6878 19.2012H11.7703C11.559 19.2012 11.3879 19.0301 11.3879 18.8189V16.9014C11.3879 16.6901 11.559 16.519 11.7703 16.519H13.6878C13.899 16.519 14.0701 16.6901 14.0701 16.9014V18.8189C14.0701 19.0301 13.899 19.2012 13.6878 19.2012Z" fill="#FBD598"/>
<path d="M17.9935 19.2012H16.076C15.8647 19.2012 15.6936 19.0301 15.6936 18.8189V16.9014C15.6936 16.6901 15.8647 16.519 16.076 16.519H17.9935C18.2047 16.519 18.3758 16.6901 18.3758 16.9014V18.8189C18.3758 19.0301 18.2047 19.2012 17.9935 19.2012Z" fill="#FBD598"/>
<path d="M22.2991 19.2012H20.3816C20.1704 19.2012 19.9993 19.0301 19.9993 18.8189V16.9014C19.9993 16.6901 20.1704 16.519 20.3816 16.519H22.2991C22.5104 16.519 22.6815 16.6901 22.6815 16.9014V18.8189C22.6815 19.0301 22.5104 19.2012 22.2991 19.2012Z" fill="#FBD598"/>
<path d="M26.6049 19.2012H24.6874C24.4762 19.2012 24.3051 19.0301 24.3051 18.8189V16.9014C24.3051 16.6901 24.4762 16.519 24.6874 16.519H26.6049C26.8162 16.519 26.9873 16.6901 26.9873 16.9014V18.8189C26.9873 19.0301 26.8162 19.2012 26.6049 19.2012Z" fill="#FBD598"/>
<path d="M13.6878 23.3624H11.7703C11.559 23.3624 11.3879 23.1913 11.3879 22.98V21.0625C11.3879 20.8513 11.559 20.6802 11.7703 20.6802H13.6878C13.899 20.6802 14.0701 20.8513 14.0701 21.0625V22.98C14.0701 23.1911 13.899 23.3624 13.6878 23.3624Z" fill="#FBD598"/>
<path d="M17.9935 23.3624H16.076C15.8647 23.3624 15.6936 23.1913 15.6936 22.98V21.0625C15.6936 20.8513 15.8647 20.6802 16.076 20.6802H17.9935C18.2047 20.6802 18.3758 20.8513 18.3758 21.0625V22.98C18.3758 23.1911 18.2047 23.3624 17.9935 23.3624Z" fill="#FBD598"/>
<path d="M22.2991 23.3624H20.3816C20.1704 23.3624 19.9993 23.1913 19.9993 22.98V21.0625C19.9993 20.8513 20.1704 20.6802 20.3816 20.6802H22.2991C22.5104 20.6802 22.6815 20.8513 22.6815 21.0625V22.98C22.6815 23.1911 22.5104 23.3624 22.2991 23.3624Z" fill="#FBD598"/>
<path d="M26.6049 23.3624H24.6874C24.4762 23.3624 24.3051 23.1913 24.3051 22.98V21.0625C24.3051 20.8513 24.4762 20.6802 24.6874 20.6802H26.6049C26.8162 20.6802 26.9873 20.8513 26.9873 21.0625V22.98C26.9873 23.1911 26.8162 23.3624 26.6049 23.3624Z" fill="#FBD598"/>
<path d="M13.6878 27.5235H11.7703C11.559 27.5235 11.3879 27.3524 11.3879 27.1412V25.2237C11.3879 25.0124 11.559 24.8413 11.7703 24.8413H13.6878C13.899 24.8413 14.0701 25.0124 14.0701 25.2237V27.1412C14.0701 27.3524 13.899 27.5235 13.6878 27.5235Z" fill="#FBD598"/>
<path d="M17.9935 27.5235H16.076C15.8647 27.5235 15.6936 27.3524 15.6936 27.1412V25.2237C15.6936 25.0124 15.8647 24.8413 16.076 24.8413H17.9935C18.2047 24.8413 18.3758 25.0124 18.3758 25.2237V27.1412C18.3758 27.3524 18.2047 27.5235 17.9935 27.5235Z" fill="#FBD598"/>
<path d="M22.2991 27.5235H20.3816C20.1704 27.5235 19.9993 27.3524 19.9993 27.1412V25.2237C19.9993 25.0124 20.1704 24.8413 20.3816 24.8413H22.2991C22.5104 24.8413 22.6815 25.0124 22.6815 25.2237V27.1412C22.6815 27.3524 22.5104 27.5235 22.2991 27.5235Z" fill="#FBD598"/>
<path d="M26.6049 27.5235H24.6874C24.4762 27.5235 24.3051 27.3524 24.3051 27.1412V25.2237C24.3051 25.0124 24.4762 24.8413 24.6874 24.8413H26.6049C26.8162 24.8413 26.9873 25.0124 26.9873 25.2237V27.1412C26.9873 27.3524 26.8162 27.5235 26.6049 27.5235Z" fill="#FBD598"/>
<path d="M9.62866 14.7534V12.1046C9.62866 11.2635 10.3106 10.5815 11.1518 10.5815H27.2234C28.0646 10.5815 28.7465 11.2635 28.7465 12.1046V14.7534H9.62866Z" fill="#0089EF"/>
<path d="M14.7374 13.1357C14.1273 13.1357 13.6326 12.6412 13.6326 12.0309V10.1058C13.6326 9.49555 14.1271 9.00098 14.7374 9.00098C15.3474 9.00098 15.8422 9.49555 15.8422 10.1058V12.0309C15.8422 12.6412 15.3476 13.1357 14.7374 13.1357Z" fill="#FBD598"/>
<path d="M23.6373 13.1357C23.027 13.1357 22.5325 12.6412 22.5325 12.0309V10.1058C22.5325 9.49555 23.027 9.00098 23.6373 9.00098C24.2473 9.00098 24.7421 9.49555 24.7421 10.1058V12.0309C24.7421 12.6412 24.2475 13.1357 23.6373 13.1357Z" fill="#FBD598"/>
<path d="M24.8272 31.0008C27.8891 31.0008 30.3713 28.5186 30.3713 25.4567C30.3713 22.3948 27.8891 19.9126 24.8272 19.9126C21.7653 19.9126 19.2831 22.3948 19.2831 25.4567C19.2831 28.5186 21.7653 31.0008 24.8272 31.0008Z" fill="#F6AB30"/>
<path d="M24.8272 29.5382C27.0814 29.5382 28.9088 27.7108 28.9088 25.4566C28.9088 23.2024 27.0814 21.375 24.8272 21.375C22.573 21.375 20.7456 23.2024 20.7456 25.4566C20.7456 27.7108 22.573 29.5382 24.8272 29.5382Z" fill="white"/>
<path d="M12.4584 18.6962C12.4942 18.7298 12.5412 18.7482 12.5896 18.7482C12.5972 18.7482 12.6047 18.7478 12.6123 18.7468C12.6685 18.7401 12.719 18.7088 12.75 18.6612L13.6565 17.2666C13.7141 17.178 13.6888 17.0595 13.6003 17.0022C13.5118 16.9444 13.3935 16.9699 13.3357 17.0582L12.554 18.2609L12.0931 17.8269C12.0162 17.7546 11.8954 17.7581 11.8228 17.8349C11.7505 17.9118 11.7541 18.0328 11.831 18.1052L12.4584 18.6962Z" fill="white"/>
<path d="M16.7642 18.6962C16.7999 18.7298 16.8469 18.7482 16.8953 18.7482C16.903 18.7482 16.9104 18.7478 16.9181 18.7468C16.9745 18.7401 17.0247 18.7088 17.0557 18.6612L17.9621 17.2666C18.0196 17.178 17.9944 17.0595 17.9059 17.0022C17.8175 16.9444 17.6992 16.9699 17.6413 17.0582L16.8596 18.2611L16.3986 17.8271C16.3218 17.7546 16.201 17.7583 16.1283 17.8351C16.056 17.912 16.0597 18.033 16.1365 18.1054L16.7642 18.6962Z" fill="white"/>
<path d="M21.1666 18.7482C21.1743 18.7482 21.1817 18.7478 21.1894 18.7468C21.2456 18.7401 21.296 18.7088 21.327 18.6612L22.2336 17.2666C22.2911 17.178 22.2659 17.0595 22.1774 17.0022C22.0888 16.9444 21.9705 16.9699 21.9128 17.0582L21.131 18.2609L20.6701 17.8269C20.5935 17.7546 20.4724 17.7581 20.3998 17.8349C20.3275 17.9118 20.3312 18.0328 20.408 18.1052L21.0355 18.696C21.0712 18.7298 21.1182 18.7482 21.1666 18.7482Z" fill="white"/>
<path d="M25.5596 18.7482C25.5673 18.7482 25.5747 18.7478 25.5824 18.7468C25.6388 18.7401 25.689 18.7088 25.72 18.6612L26.6264 17.2666C26.6839 17.178 26.6587 17.0595 26.5702 17.0022C26.4817 16.9444 26.3635 16.9699 26.3056 17.0582L25.5239 18.2611L25.0629 17.8271C24.9861 17.7546 24.8653 17.7583 24.7926 17.8351C24.7204 17.912 24.724 18.033 24.8008 18.1054L25.4285 18.6962C25.4642 18.7298 25.5113 18.7482 25.5596 18.7482Z" fill="white"/>
<path d="M11.8311 22.2665L12.4585 22.8572C12.4943 22.8909 12.5413 22.9092 12.5896 22.9092C12.5973 22.9092 12.6048 22.9088 12.6124 22.9079C12.6686 22.9012 12.7191 22.8698 12.75 22.8222L13.6566 21.4276C13.7141 21.3391 13.6889 21.2206 13.6004 21.1632C13.5119 21.1057 13.3935 21.1309 13.3358 21.2192L12.5541 22.4219L12.0932 21.9879C12.0163 21.9157 11.8955 21.9191 11.8228 21.996C11.7506 22.073 11.754 22.194 11.8311 22.2665Z" fill="white"/>
<path d="M16.1365 22.2665L16.7642 22.8572C16.7999 22.8909 16.8469 22.9092 16.8953 22.9092C16.903 22.9092 16.9104 22.9088 16.9181 22.9079C16.9745 22.9012 17.0247 22.8698 17.0557 22.8222L17.9621 21.4276C18.0196 21.3391 17.9944 21.2206 17.9059 21.1632C17.8175 21.1057 17.6992 21.1309 17.6413 21.2192L16.8596 22.4221L16.3986 21.9881C16.3218 21.9157 16.201 21.9193 16.1283 21.9962C16.056 22.073 16.0597 22.194 16.1365 22.2665Z" fill="white"/>
<path d="M13.6002 25.3244C13.5117 25.2668 13.3933 25.2919 13.3356 25.3804L12.5539 26.5831L12.0929 26.1491C12.0161 26.077 11.8951 26.0803 11.8228 26.1571C11.7504 26.234 11.754 26.355 11.8308 26.4275L12.4583 27.0184C12.494 27.052 12.5411 27.0704 12.5894 27.0704C12.5971 27.0704 12.6045 27.07 12.6122 27.0691C12.6684 27.0624 12.7189 27.031 12.7498 26.9834L13.6564 25.5888C13.7139 25.5005 13.6887 25.3819 13.6002 25.3244Z" fill="white"/>
<path d="M16.1365 26.4275L16.7642 27.0184C16.7999 27.052 16.8469 27.0704 16.8953 27.0704C16.903 27.0704 16.9104 27.07 16.9181 27.0691C16.9745 27.0624 17.0247 27.031 17.0557 26.9834L17.9621 25.5888C18.0196 25.5003 17.9944 25.3817 17.9059 25.3244C17.8175 25.2668 17.6992 25.2919 17.6413 25.3804L16.8596 26.5831L16.3986 26.1491C16.3218 26.0769 16.201 26.0803 16.1283 26.1571C16.056 26.234 16.0597 26.355 16.1365 26.4275Z" fill="white"/>
<path d="M24.8272 22.5459C24.7215 22.5459 24.636 22.6315 24.636 22.7371V25.6542H22.7789C22.6732 25.6542 22.5878 25.7399 22.5878 25.8454C22.5878 25.9509 22.6732 26.0366 22.7789 26.0366H24.8272C24.9329 26.0366 25.0184 25.9509 25.0184 25.8454V22.7371C25.0184 22.6315 24.9329 22.5459 24.8272 22.5459Z" fill="#FBD598"/>
</g>
<defs>
<clipPath id="clip0_2754_5146">
<rect width="40" height="40" fill="white" transform="translate(0 0.000488281)"/>
</clipPath>
</defs>
</svg>
