<svg width="20" height="20" viewBox="0 0 20 20" fill="none" xmlns="http://www.w3.org/2000/svg">
<path d="M2.00388 17.2266C0.720416 15.9349 6.10352e-05 14.1879 6.10352e-05 12.367C6.10352e-05 10.5461 0.720416 8.79914 2.00388 7.50746L8.59467 0.931853C8.80644 0.806545 9.05389 0.755258 9.29802 0.786071C9.54216 0.816884 9.7691 0.928046 9.9431 1.10204C10.1171 1.27604 10.2283 1.50298 10.2591 1.74712C10.2899 1.99125 10.2386 2.23869 10.1133 2.45047L3.61361 9.07163C3.11807 9.48518 2.71411 9.99743 2.42748 10.5757C2.14085 11.154 1.97783 11.7857 1.94881 12.4305C1.91979 13.0753 2.02541 13.719 2.25894 14.3207C2.49247 14.9224 2.84878 15.4689 3.30517 15.9253C3.76157 16.3817 4.30803 16.738 4.90974 16.9715C5.51145 17.2051 6.15521 17.3107 6.79999 17.2817C7.44478 17.2527 8.07644 17.0896 8.65474 16.803C9.23304 16.5164 9.74529 16.1124 10.1588 15.6169L17.0382 8.72235C17.5355 8.17675 17.8034 7.46052 17.7863 6.72249C17.7692 5.98446 17.4684 5.2814 16.9464 4.75939C16.4244 4.23739 15.7214 3.93659 14.9833 3.91951C14.2453 3.90242 13.5291 4.17036 12.9835 4.66765L6.65084 10.9547C6.52554 11.1665 6.47425 11.4139 6.50506 11.6581C6.53587 11.9022 6.64704 12.1291 6.82103 12.3031C6.99503 12.4771 7.22197 12.5883 7.46611 12.6191C7.71024 12.6499 7.95768 12.5986 8.16946 12.4733L14.2439 6.50517C14.4477 6.30846 14.72 6.19852 15.0032 6.19852C15.2865 6.19852 15.5587 6.30846 15.7625 6.50517C15.9525 6.71242 16.0579 6.98335 16.0579 7.26448C16.0579 7.54561 15.9525 7.81654 15.7625 8.02379L9.85512 14.0983C9.22883 14.7245 8.37939 15.0764 7.49368 15.0764C6.60796 15.0764 5.75852 14.7245 5.13223 14.0983C4.50593 13.472 4.15408 12.6225 4.15408 11.7368C4.15408 10.8511 4.50593 10.0017 5.13223 9.37536L11.3889 3.11866C12.3541 2.20465 13.6378 1.70334 14.9669 1.72142C16.296 1.7395 17.5656 2.27553 18.5056 3.21545C19.4455 4.15537 19.9815 5.42498 19.9996 6.7541C20.0177 8.08323 19.5164 9.36695 18.6023 10.3321L11.7078 17.2266C10.4168 18.5054 8.67307 19.2229 6.85586 19.2229C5.03865 19.2229 3.29492 18.5054 2.00388 17.2266Z" fill="#A70000"/>
</svg>
