<svg width="24" height="25" viewBox="0 0 24 25" fill="none" xmlns="http://www.w3.org/2000/svg">
<path d="M20.4935 15.4995L3.5063 15.4995C2.67409 15.4995 1.99854 16.1632 1.99854 16.9808C1.99854 17.7973 2.67409 18.4621 3.5063 18.4621L20.4935 18.4621C21.3257 18.4621 22.0013 17.7973 22.0013 16.9808C22.0013 16.1632 21.3257 15.4995 20.4935 15.4995Z" fill="white"/>
<path d="M22.0006 8.01814C22.0006 7.20161 21.3251 6.5379 20.4939 6.5379H3.50643C2.67421 6.5379 1.99866 7.20161 1.99866 8.01814C1.99866 8.83576 2.67421 9.49946 3.50643 9.49946H20.4939C21.3251 9.49946 22.0006 8.83576 22.0006 8.01814Z" fill="white"/>
</svg>
