<svg width="24" height="24" viewBox="0 0 24 24" fill="none" xmlns="http://www.w3.org/2000/svg">
<path fill-rule="evenodd" clip-rule="evenodd" d="M2.45871 2.80894C2.70431 1.21996 4.08037 0 5.73753 0H7.30456C7.30588 0 7.30717 5.3215e-06 7.30843 1.52206e-05C7.30969 5.3215e-06 7.31098 0 7.3123 0H18.1323C19.8296 0 21.2023 1.3007 21.4204 2.91033H21.4888C22.7033 2.91033 23.6907 3.89752 23.6907 5.11203V18.8816C23.6907 20.0961 22.7034 21.0834 21.4889 21.0834H21.4205C21.2032 22.6948 19.8358 24 18.1323 24H7.3123C7.31098 24 7.30969 24 7.30843 24C7.30717 24 7.30588 24 7.30456 24H5.73753C4.08042 24 2.70436 22.78 2.45876 21.1911H2.055C1.092 21.1911 0.309326 20.4084 0.309326 19.4454C0.309326 18.4824 1.09199 17.6998 2.055 17.6998H2.41915V16.2275H2.055C1.09202 16.2275 0.309326 15.4449 0.309326 14.4819C0.309326 13.5189 1.09197 12.7362 2.055 12.7362H2.41915V11.2639H2.055C1.09199 11.2639 0.309326 10.4813 0.309326 9.51825C0.309326 8.55527 1.09197 7.77253 2.055 7.77253H2.41915V6.30028H2.055C1.09199 6.30028 0.309326 5.51762 0.309326 4.55461C0.309326 3.59161 1.09199 2.80894 2.055 2.80894H2.45871ZM7.34008 23.9987C7.34046 23.9987 7.34017 23.9987 7.33942 23.9988ZM7.27678 23.9987L7.27745 23.9988ZM7.27677 0.0012676C7.27639 0.00129427 7.27669 0.00127092 7.27747 0.00121854ZM7.3401 0.0012676L7.3394 0.00121854ZM22.0557 17.3307C21.8748 17.379 21.6848 17.4048 21.4889 17.4048H21.4506V17.6942C21.4506 17.9388 21.3507 18.1548 21.1785 18.3032C21.0162 18.4431 20.8158 18.5015 20.6331 18.5015C20.4503 18.5015 20.2499 18.4431 20.0877 18.3032C19.9155 18.1548 19.8156 17.9388 19.8156 17.6942V3.31819C19.8156 2.39048 19.0601 1.635 18.1324 1.635H8.12206V3.72783C8.12206 3.97242 8.02216 4.18845 7.84998 4.33686C7.68771 4.47673 7.4873 4.5351 7.30456 4.5351C7.12183 4.5351 6.92142 4.47673 6.75915 4.33686C6.58697 4.18845 6.48706 3.97242 6.48706 3.72783V1.635H5.73753C4.98726 1.635 4.34977 2.12916 4.13343 2.80894H4.43325C5.39623 2.80894 6.17892 3.59155 6.17892 4.55457C6.17892 5.51757 5.39625 6.30024 4.43325 6.30024H4.05415V7.77249H4.43325C5.39627 7.77249 6.17892 8.55522 6.17892 9.5182C6.17892 10.4812 5.39625 11.2639 4.43325 11.2639H4.05415V12.7361H4.43325C5.39625 12.7361 6.17892 13.5188 6.17892 14.4818C6.17892 15.4448 5.39627 16.2275 4.43325 16.2275H4.05415V17.6998H4.43325C5.39625 17.6998 6.17892 18.4824 6.17892 19.4454C6.17892 20.4084 5.39625 21.1911 4.43325 21.1911H4.13343C4.34978 21.8708 4.98726 22.365 5.73748 22.365H6.48702V5.48278C6.48702 5.2382 6.58692 5.02216 6.7591 4.87375C6.92137 4.73388 7.12179 4.67551 7.30452 4.67551C7.48725 4.67551 7.68767 4.73388 7.84994 4.87375C8.02212 5.02216 8.12202 5.2382 8.12202 5.48278V22.365H18.1323C19.0601 22.365 19.8155 21.6096 19.8155 20.6819V19.4455C19.8155 19.2009 19.9154 18.9849 20.0876 18.8364C20.2499 18.6966 20.4503 18.6382 20.633 18.6382C20.8158 18.6382 21.0162 18.6966 21.1784 18.8364C21.3506 18.9849 21.4505 19.2009 21.4505 19.4455V19.4484H21.4889C21.801 19.4484 22.0557 19.1937 22.0557 18.8816C22.0557 18.8816 22.0557 18.8816 22.0557 18.8815V17.3307ZM22.0557 9.91251C21.8748 9.96082 21.6847 9.98664 21.4888 9.98664H21.4505V12.0913H21.4889C21.8009 12.0913 22.0557 11.8366 22.0557 11.5244V11.0444H22.0557V9.91251ZM22.0557 13.6522C21.8748 13.7005 21.6848 13.7263 21.4889 13.7263H21.4505V15.7698H21.4889C21.8009 15.7698 22.0557 15.5151 22.0557 15.203V13.6522ZM2.055 4.44394C1.99443 4.44394 1.94433 4.49405 1.94433 4.55461C1.94433 4.61521 1.99441 4.66528 2.055 4.66528H4.43325C4.49384 4.66528 4.54392 4.61521 4.54392 4.55461C4.54392 4.49402 4.49384 4.44394 4.43325 4.44394H2.055ZM21.4505 4.54533V8.35164H21.4888C21.8011 8.35164 22.0557 8.09687 22.0557 7.78494V5.11203C22.0557 4.8001 21.8011 4.54533 21.4888 4.54533H21.4505ZM2.055 9.40753C1.99445 9.40753 1.94433 9.45761 1.94433 9.51825C1.94433 9.57884 1.99441 9.62892 2.055 9.62892H4.43325C4.49384 9.62892 4.54392 9.57884 4.54392 9.51825C4.54392 9.45759 4.49381 9.40753 4.43325 9.40753H2.055ZM2.055 14.3711C1.99445 14.3711 1.94433 14.4212 1.94433 14.4818C1.94433 14.5425 1.99438 14.5925 2.055 14.5925H4.43325C4.49381 14.5925 4.54392 14.5425 4.54392 14.4818C4.54392 14.4212 4.49384 14.3711 4.43325 14.3711H2.055ZM2.055 19.3348C1.99443 19.3348 1.94433 19.3849 1.94433 19.4454C1.94433 19.506 1.99441 19.5561 2.055 19.5561H4.43325C4.49384 19.5561 4.54392 19.506 4.54392 19.4454C4.54392 19.3848 4.49384 19.3348 4.43325 19.3348H2.055Z" fill="white"/>
<path fill-rule="evenodd" clip-rule="evenodd" d="M10.5491 7.67308C10.5491 5.88239 12.0053 4.42639 13.7961 4.42639C15.587 4.42639 17.0432 5.88238 17.0432 7.67308C17.0432 8.41023 16.79 9.11154 16.3517 9.67263C17.6558 10.5219 18.4896 11.992 18.4896 13.608C18.4896 13.8525 18.3897 14.0686 18.2175 14.217C18.0552 14.3569 17.8548 14.4152 17.6721 14.4152C17.4893 14.4152 17.2889 14.3569 17.1266 14.217C16.9545 14.0686 16.8546 13.8525 16.8546 13.608C16.8546 12.2372 15.931 11.0245 14.6108 10.6607C13.885 10.4606 13.7992 9.45266 14.4803 9.13261C15.0435 8.86802 15.4082 8.29377 15.4082 7.67308C15.4082 6.78492 14.6847 6.06139 13.7961 6.06139C12.9076 6.06139 12.1841 6.78486 12.1841 7.67308C12.1841 8.29377 12.5488 8.868 13.1119 9.1326C13.7932 9.45268 13.7072 10.4606 12.9816 10.6606C11.6613 11.0245 10.7377 12.2372 10.7377 13.608C10.7377 13.8525 10.6378 14.0686 10.4656 14.217C10.3034 14.3569 10.103 14.4152 9.92022 14.4152C9.73749 14.4152 9.53707 14.3569 9.3748 14.217C9.20262 14.0686 9.10272 13.8525 9.10272 13.608C9.10272 11.9921 9.93655 10.5219 11.2406 9.67265C10.8022 9.11156 10.5491 8.41025 10.5491 7.67308Z" fill="white"/>
<path fill-rule="evenodd" clip-rule="evenodd" d="M9.31128 15.9779C9.45969 15.8057 9.67572 15.7058 9.92031 15.7058H17.6721C17.9167 15.7058 18.1328 15.8057 18.2812 15.9779C18.421 16.1402 18.4794 16.3406 18.4794 16.5233C18.4794 16.706 18.421 16.9065 18.2812 17.0687C18.1328 17.2409 17.9167 17.3408 17.6721 17.3408H9.92031C9.67572 17.3408 9.45969 17.2409 9.31128 17.0687C9.17141 16.9065 9.11304 16.706 9.11304 16.5233C9.11304 16.3406 9.17141 16.1402 9.31128 15.9779Z" fill="white"/>
<path fill-rule="evenodd" clip-rule="evenodd" d="M10.6673 18.2043C10.8157 18.0322 11.0317 17.9323 11.2763 17.9323H16.3158C16.5604 17.9323 16.7764 18.0322 16.9249 18.2043C17.0647 18.3666 17.1231 18.567 17.1231 18.7498C17.1231 18.9325 17.0647 19.1329 16.9249 19.2952C16.7764 19.4673 16.5604 19.5673 16.3158 19.5673H11.2763C11.0317 19.5673 10.8157 19.4673 10.6673 19.2952C10.5274 19.1329 10.4691 18.9325 10.4691 18.7498C10.4691 18.567 10.5274 18.3666 10.6673 18.2043Z" fill="white"/>
</svg>
