<svg width="22" height="16" viewBox="0 0 22 16" fill="none" xmlns="http://www.w3.org/2000/svg">
<path d="M20.0664 0.263855H1.93359C0.865262 0.263855 0 1.13449 0 2.19745V13.799C0 14.8683 0.871621 15.7326 1.93359 15.7326H20.0664C21.1258 15.7326 22 14.8719 22 13.799V2.19745C22 1.13638 21.1382 0.263855 20.0664 0.263855ZM19.7956 1.55292C19.4006 1.94587 12.602 8.70863 12.3673 8.94213C12.002 9.30736 11.5165 9.50845 11 9.50845C10.4835 9.50845 9.99797 9.30732 9.63153 8.94092C9.47366 8.78387 2.75013 2.09578 2.20438 1.55292H19.7956ZM1.28906 13.5366V2.46063L6.85945 8.00167L1.28906 13.5366ZM2.2052 14.4435L7.77339 8.91076L8.72124 9.85362C9.32993 10.4623 10.1392 10.7975 11 10.7975C11.8608 10.7975 12.6701 10.4623 13.2776 9.85482L14.2266 8.91076L19.7948 14.4435H2.2052ZM20.7109 13.5366L15.1406 8.00167L20.7109 2.46063V13.5366Z" fill="#1E1F22"/>
</svg>
