<svg width="24" height="24" viewBox="0 0 24 24" fill="none" xmlns="http://www.w3.org/2000/svg">
<path fill-rule="evenodd" clip-rule="evenodd" d="M11.2542 8.27943C11.3944 7.99563 11.6834 7.81592 12 7.81592C12.3166 7.81592 12.6056 7.99563 12.7457 8.27943L13.2321 9.26505L14.3197 9.42309C14.3197 9.42309 14.3196 9.42309 14.3197 9.42309C14.6331 9.46861 14.8932 9.68816 14.991 9.98902C15.0888 10.2901 15.0073 10.6206 14.7807 10.8416L13.9937 11.6088L14.1794 12.6919C14.1794 12.6919 14.1794 12.6919 14.1794 12.6919C14.233 13.004 14.1046 13.3193 13.8486 13.5054C13.7037 13.6107 13.5319 13.6642 13.3598 13.6642C13.2275 13.6642 13.0945 13.6326 12.9729 13.5687L12 13.0572L11.0272 13.5687C11.0272 13.5687 11.0273 13.5686 11.0272 13.5687C10.7471 13.716 10.4075 13.6914 10.1514 13.5054C9.89548 13.3193 9.76706 13.0041 9.82054 12.692L10.0063 11.6088L9.21936 10.8416C9.21935 10.8416 9.21936 10.8416 9.21936 10.8416C8.99261 10.6206 8.91115 10.2901 9.00892 9.98912C9.10678 9.68813 9.367 9.46867 9.68021 9.42311L10.7679 9.26505L11.2542 8.27943ZM12 10.5042C11.8942 10.6544 11.7413 10.7656 11.5655 10.8198C11.6758 10.967 11.7342 11.1467 11.7315 11.3306C11.8185 11.3009 11.9092 11.2861 12 11.2861C12.0908 11.2861 12.1816 11.3009 12.2685 11.3306C12.2658 11.1467 12.3243 10.9669 12.4345 10.8198C12.2588 10.7655 12.1059 10.6544 12 10.5042Z" fill="white"/>
<path fill-rule="evenodd" clip-rule="evenodd" d="M5.16501 8.27943C5.30512 7.99563 5.59418 7.81592 5.91076 7.81592C6.22734 7.81592 6.5164 7.99563 6.65651 8.27943L7.1429 9.26505L8.23042 9.42309C8.23044 9.42309 8.2304 9.42309 8.23042 9.42309C8.54386 9.46861 8.80399 9.68816 8.90181 9.98902C8.99961 10.2901 8.91806 10.6206 8.69146 10.8416L7.90442 11.6088L8.0902 12.6919C8.09021 12.6919 8.0902 12.6919 8.0902 12.6919C8.14376 13.004 8.01536 13.3193 7.75936 13.5054C7.61443 13.6107 7.44266 13.6642 7.27056 13.6642C7.13828 13.6642 7.00531 13.6326 6.88365 13.5687L5.9108 13.0572L4.93801 13.5687C4.938 13.5687 4.93802 13.5686 4.93801 13.5687C4.65786 13.716 4.31825 13.6914 4.06219 13.5054C3.80625 13.3193 3.67782 13.0041 3.7313 12.692L3.9171 11.6088L3.13012 10.8416C3.13012 10.8416 3.13013 10.8416 3.13012 10.8416C2.90338 10.6206 2.82191 10.2901 2.91968 9.98912C3.01755 9.68813 3.27777 9.46867 3.59098 9.42311L4.67862 9.26505L5.16501 8.27943ZM5.9108 10.5042C5.80493 10.6544 5.65203 10.7656 5.4763 10.8198C5.58653 10.967 5.64495 11.1467 5.64226 11.3306C5.72923 11.3009 5.81999 11.2861 5.9108 11.2861C6.00161 11.2861 6.09236 11.3009 6.17931 11.3306C6.17661 11.1467 6.23504 10.9669 6.34527 10.8198C6.16955 10.7655 6.01666 10.6544 5.9108 10.5042Z" fill="white"/>
<path fill-rule="evenodd" clip-rule="evenodd" d="M17.3435 8.27943C17.4836 7.99561 17.7727 7.81592 18.0893 7.81592C18.4058 7.81592 18.6949 7.99563 18.835 8.27943L19.3214 9.26505L20.4089 9.42309C20.4089 9.42309 20.4089 9.42309 20.4089 9.42309C20.7223 9.46862 20.9825 9.68816 21.0803 9.98902C21.1781 10.2901 21.0965 10.6206 20.8699 10.8416L20.0829 11.6088L20.2687 12.6919C20.2687 12.6919 20.2686 12.6919 20.2687 12.6919C20.3222 13.0041 20.1938 13.3193 19.9378 13.5054C19.6817 13.6913 19.3422 13.716 19.062 13.5687L18.0892 13.0573L17.1165 13.5687C16.9948 13.6327 16.8617 13.6642 16.7296 13.6642C16.5574 13.6642 16.3856 13.6106 16.2406 13.5053C15.9847 13.3193 15.8563 13.0041 15.9098 12.692L16.0956 11.6087L15.3086 10.8416C15.3086 10.8416 15.3086 10.8416 15.3086 10.8416C15.0818 10.6206 15.0004 10.2901 15.0982 9.98912C15.196 9.68813 15.4562 9.46867 15.7694 9.42311L16.8571 9.26505L17.3435 8.27943ZM18.0892 10.5041C17.9834 10.6544 17.8305 10.7655 17.6548 10.8198C17.765 10.967 17.8234 11.1468 17.8207 11.3306C17.9077 11.3009 17.9985 11.2861 18.0893 11.2861C18.1801 11.2861 18.2708 11.3009 18.3578 11.3306C18.3551 11.1467 18.4135 10.967 18.5238 10.8198C18.348 10.7656 18.1951 10.6544 18.0892 10.5041Z" fill="white"/>
<path fill-rule="evenodd" clip-rule="evenodd" d="M0 5.34001C0 4.33052 0.820513 3.51001 1.83 3.51001H9.975C10.4886 3.51001 10.905 3.92635 10.905 4.44001C10.905 4.95367 10.4886 5.37001 9.975 5.37001H1.86V16.11H10.5451C10.8772 16.11 11.1843 16.2872 11.3504 16.575C11.3505 16.575 11.3505 16.575 11.3505 16.575L12 17.7L12.6495 16.575C12.6495 16.575 12.6495 16.575 12.6495 16.575C12.8157 16.2872 13.1228 16.11 13.4549 16.11H22.14V5.37001H14.025C13.5114 5.37001 13.095 4.95367 13.095 4.44001C13.095 3.92635 13.5114 3.51001 14.025 3.51001H22.17C23.1795 3.51001 24 4.33052 24 5.34001V16.14C24 17.1495 23.1795 17.97 22.17 17.97H13.9919L12.8054 20.025C12.6393 20.3128 12.3322 20.49 12 20.49C11.6678 20.49 11.3607 20.3128 11.1946 20.025L10.0081 17.97H1.83C0.820513 17.97 0 17.1495 0 16.14V5.34001Z" fill="white"/>
<path d="M12 4.88999C11.8816 4.88999 11.7655 4.84184 11.6818 4.75814C11.5981 4.67444 11.55 4.55834 11.55 4.43999C11.55 4.32164 11.5981 4.20554 11.6818 4.12184C11.7655 4.03814 11.8816 3.98999 12 3.98999C12.1183 3.98999 12.2344 4.03814 12.3181 4.12184C12.4018 4.20554 12.45 4.32164 12.45 4.43999C12.45 4.55834 12.4018 4.67444 12.3181 4.75814C12.2344 4.84184 12.1183 4.88999 12 4.88999Z" fill="white"/>
<circle cx="12" cy="4.44017" r="0.929915" fill="white"/>
</svg>
