<svg width="40" height="40" viewBox="0 0 40 40" fill="none" xmlns="http://www.w3.org/2000/svg">
<rect y="0.000488281" width="40" height="40" rx="20" fill="#893ADD"/>
<path d="M39.1434 25.8092C37.3817 31.6229 33.0441 36.3169 27.4589 38.5633L19.8088 30.9132L16.9689 19.4787L23.3213 9.9873L39.1434 25.8092Z" fill="black" fill-opacity="0.3"/>
<path d="M22.5765 15.6582H17.4236C17.0946 15.6582 16.8279 15.9249 16.8279 16.2539V25.3944H15.0589C14.6435 25.3944 14.4413 25.9016 14.7426 26.1874L19.6838 30.8737C19.8611 31.0418 20.139 31.0418 20.3163 30.8737L25.2574 26.1874C25.5588 25.9017 25.3565 25.3944 24.9411 25.3944H23.1722V16.254C23.1723 15.925 22.9056 15.6582 22.5765 15.6582Z" fill="#893ADD"/>
<path d="M24.9413 25.3946H23.1724V19.3965C22.2664 20.0073 21.1749 20.3639 20.0002 20.3639C18.8254 20.3639 17.7339 20.0072 16.828 19.3965V25.3946H15.0589C14.6435 25.3946 14.4413 25.9018 14.7426 26.1875L19.6838 30.8738C19.8611 31.0419 20.139 31.0419 20.3163 30.8738L25.2574 26.1875C25.5589 25.9017 25.3566 25.3946 24.9413 25.3946Z" fill="white"/>
<path d="M20 20.3638C23.1381 20.3638 25.682 17.82 25.682 14.6819C25.682 11.5439 23.1381 9 20 9C16.862 9 14.3181 11.5439 14.3181 14.6819C14.3181 17.82 16.862 20.3638 20 20.3638Z" fill="#FFC91D"/>
<path d="M20.0001 19.1918C22.4906 19.1918 24.5095 17.1728 24.5095 14.6823C24.5095 12.1918 22.4906 10.1729 20.0001 10.1729C17.5096 10.1729 15.4906 12.1918 15.4906 14.6823C15.4906 17.1728 17.5096 19.1918 20.0001 19.1918Z" fill="#FFA91A"/>
<path d="M20.4552 17.3699H19.5448C18.8159 17.3699 18.2229 16.7769 18.2229 16.0479C18.2229 15.9465 18.3052 15.8641 18.4067 15.8641C18.5082 15.8641 18.5905 15.9465 18.5905 16.0479C18.5905 16.5742 19.0186 17.0022 19.5448 17.0022H20.4552C20.9815 17.0022 21.4095 16.5741 21.4095 16.0479V15.5927C21.4095 15.0665 20.9814 14.6384 20.4552 14.6384H19.5448C18.8159 14.6384 18.2229 14.0455 18.2229 13.3165C18.2229 12.5876 18.8159 11.9946 19.5448 11.9946H20.4552C21.1842 11.9946 21.7772 12.5876 21.7772 13.3165C21.7772 13.418 21.6948 13.5004 21.5933 13.5004C21.4919 13.5004 21.4095 13.418 21.4095 13.3165C21.4095 12.7904 20.9814 12.3623 20.4552 12.3623H19.5448C19.0185 12.3623 18.5905 12.7904 18.5905 13.3165C18.5905 13.8428 19.0186 14.2708 19.5448 14.2708H20.4552C21.1842 14.2708 21.7772 14.8638 21.7772 15.5927V16.0479C21.7772 16.7769 21.1842 17.3699 20.4552 17.3699Z" fill="#995222"/>
<path d="M20.0001 17.8248C19.8986 17.8248 19.8163 17.7425 19.8163 17.641V11.7229C19.8163 11.6214 19.8986 11.5391 20.0001 11.5391C20.1016 11.5391 20.1839 11.6214 20.1839 11.7229V17.6411C20.1839 17.7426 20.1016 17.8248 20.0001 17.8248Z" fill="#995222"/>
<path d="M24.5494 22.4276C24.4479 22.4276 24.3656 22.3453 24.3656 22.2438V19.4695C24.3656 19.368 24.4479 19.2856 24.5494 19.2856C24.6509 19.2856 24.7332 19.368 24.7332 19.4695V22.2438C24.7332 22.3453 24.6509 22.4276 24.5494 22.4276Z" fill="#6C2BC1"/>
<path d="M25.9281 21.5092C25.8266 21.5092 25.7443 21.4269 25.7443 21.3254V18.0915C25.7443 17.9901 25.8266 17.9077 25.9281 17.9077C26.0295 17.9077 26.1119 17.9901 26.1119 18.0915V21.3254C26.1119 21.4269 26.0295 21.5092 25.9281 21.5092Z" fill="#6C2BC1"/>
<path d="M15.4507 22.4276C15.3492 22.4276 15.2668 22.3453 15.2668 22.2438V19.4695C15.2668 19.368 15.3492 19.2856 15.4507 19.2856C15.5521 19.2856 15.6345 19.368 15.6345 19.4695V22.2438C15.6345 22.3453 15.5521 22.4276 15.4507 22.4276Z" fill="#6C2BC1"/>
<path d="M14.072 21.5092C13.9705 21.5092 13.8882 21.4269 13.8882 21.3254V18.0915C13.8882 17.9901 13.9705 17.9077 14.072 17.9077C14.1735 17.9077 14.2558 17.9901 14.2558 18.0915V21.3254C14.2558 21.4269 14.1735 21.5092 14.072 21.5092Z" fill="#6C2BC1"/>
</svg>
