<svg width="14" height="9" viewBox="0 0 14 9" fill="none" xmlns="http://www.w3.org/2000/svg">
<path fill-rule="evenodd" clip-rule="evenodd" d="M11.4259 2.6005C12.5058 3.39385 13.1357 4.18402 13.1619 4.21726L13.3853 4.49963L13.1619 4.78203C13.1357 4.81527 12.5058 5.60547 11.4259 6.39883C9.98288 7.45899 8.41273 8.01938 6.88524 8.01938C5.35778 8.01938 3.78763 7.45899 2.34455 6.39883C1.2647 5.60547 0.634812 4.81527 0.608544 4.78203L0.385254 4.49963L0.608516 4.21726C0.634784 4.18402 1.26467 3.39382 2.34452 2.6005C3.7876 1.54031 5.35775 0.979919 6.88521 0.979919C8.41273 0.979919 9.98288 1.54031 11.4259 2.6005ZM4.82369 6.72476C4.05355 6.44028 3.39868 6.04108 2.90443 5.68005C2.2921 5.23281 1.8332 4.78049 1.57158 4.49962C1.83331 4.21867 2.29216 3.7664 2.90443 3.31919C3.39868 2.95816 4.05358 2.55896 4.82369 2.27446C6.38271 1.81801 7.28534 1.81701 8.94674 2.27443C9.71687 2.55893 10.3717 2.95813 10.866 3.31916C11.4783 3.7664 11.9372 4.21873 12.1988 4.49957C11.9371 4.78057 11.4783 5.23287 10.866 5.68005C10.3717 6.04108 9.71684 6.44028 8.94674 6.72476C7.41353 7.33572 6.50985 7.32826 4.82369 6.72476Z" fill="white"/>
<path d="M5.25171 4.50286C5.25171 3.5991 5.98435 2.86646 6.88811 2.86646C7.79187 2.86646 8.52451 3.5991 8.52451 4.50286C8.52451 5.40662 7.79187 6.13926 6.88811 6.13926C5.98435 6.13926 5.25171 5.40662 5.25171 4.50286Z" fill="white"/>
</svg>
