<svg width="5" height="8" viewBox="0 0 5 8" fill="none" xmlns="http://www.w3.org/2000/svg">
<path d="M1.45692 7.8106C1.20439 8.06313 0.794958 8.06313 0.542426 7.8106C0.289894 7.55807 0.289894 7.14864 0.542426 6.8961L3.89559 3.54294C4.14812 3.29041 4.55755 3.29041 4.81008 3.54294C5.06261 3.79548 5.06261 4.20491 4.81008 4.45744L1.45692 7.8106Z" fill="#1E1F22"/>
<path d="M4.81047 3.54256C5.063 3.79509 5.063 4.20452 4.81047 4.45706C4.55794 4.70959 4.1485 4.70959 3.89597 4.45706L0.542812 1.1039C0.29028 0.851365 0.290281 0.44193 0.542812 0.189399C0.795344 -0.0631329 1.20478 -0.0631329 1.45731 0.189399L4.81047 3.54256Z" fill="#1E1F22"/>
</svg>
