<svg width="40" height="40" viewBox="0 0 40 40" fill="none" xmlns="http://www.w3.org/2000/svg">
<path d="M20 40C31.0457 40 40 31.0457 40 20C40 8.9543 31.0457 0 20 0C8.9543 0 0 8.9543 0 20C0 31.0457 8.9543 40 20 40Z" fill="#E74A2F"/>
<path d="M39.4977 24.4738L24.0283 9.00439L9.08893 23.9438L24.611 39.4659C31.9992 37.7224 37.805 31.8815 39.4977 24.4738Z" fill="black" fill-opacity="0.3"/>
<path d="M30.6434 16.8939L27.9918 19.5456L27.482 20.0553L16.8939 30.6434C16.7012 30.8361 16.4398 30.9443 16.1673 30.9443C15.8948 30.9443 15.6334 30.8361 15.4406 30.6434L13.5845 28.7873C13.7491 28.6246 13.88 28.4309 13.9695 28.2175C14.059 28.0041 14.1055 27.775 14.1061 27.5436C14.1068 27.3121 14.0617 27.0828 13.9735 26.8688C13.8852 26.6549 13.7555 26.4605 13.5919 26.2968C13.4282 26.1331 13.2338 26.0034 13.0198 25.9152C12.8059 25.8269 12.5766 25.7818 12.3451 25.7825C12.1137 25.7832 11.8846 25.8297 11.6712 25.9192C11.4577 26.0087 11.2641 26.1395 11.1014 26.3042L9.24525 24.448C9.05258 24.2553 8.94434 23.9939 8.94434 23.7214C8.94434 23.4489 9.05258 23.1875 9.24525 22.9948L20.3431 11.8969L22.9948 9.24525C23.1875 9.05258 23.4489 8.94434 23.7214 8.94434C23.9939 8.94434 24.2553 9.05258 24.448 9.24525L26.3042 11.1014C25.9781 11.4314 25.7959 11.8769 25.7972 12.3408C25.7986 12.8047 25.9835 13.2491 26.3115 13.5772C26.6395 13.9052 27.084 14.0901 27.5479 14.0914C28.0117 14.0928 28.4573 13.9106 28.7873 13.5845L30.6434 15.4406C30.8361 15.6334 30.9443 15.8948 30.9443 16.1673C30.9443 16.4398 30.8361 16.7012 30.6434 16.8939Z" fill="#FDD82E"/>
<path d="M12.9143 20.8505C12.8813 20.8841 12.842 20.9109 12.7986 20.9292C12.7552 20.9476 12.7086 20.9571 12.6615 20.9574C12.5657 20.9569 12.4741 20.9185 12.4066 20.8505L11.8969 20.3428L12.4066 19.833L12.9143 20.3428C12.948 20.3759 12.9748 20.4154 12.9931 20.459C13.0113 20.5026 13.0208 20.5494 13.0208 20.5966C13.0208 20.6439 13.0113 20.6907 12.9931 20.7343C12.9748 20.7779 12.948 20.8174 12.9143 20.8505Z" fill="#FFCD00"/>
<path d="M18.5979 26.0261L17.6524 25.0785C17.5851 25.0109 17.4936 24.9729 17.3982 24.9727C17.3028 24.9725 17.2113 25.0102 17.1437 25.0775C17.0761 25.1448 17.038 25.2363 17.0378 25.3317C17.0376 25.4271 17.0753 25.5187 17.1426 25.5863L18.0902 26.5339C18.1233 26.5684 18.1629 26.5961 18.2068 26.6151C18.2507 26.6342 18.2979 26.6443 18.3458 26.6448C18.3936 26.6454 18.4411 26.6363 18.4854 26.6183C18.5297 26.6002 18.5699 26.5735 18.6038 26.5397C18.6376 26.5058 18.6643 26.4656 18.6824 26.4213C18.7004 26.377 18.7094 26.3295 18.7089 26.2817C18.7084 26.2338 18.6983 26.1866 18.6792 26.1427C18.6602 26.0988 18.6325 26.0592 18.5979 26.0261ZM16.7048 24.1309L15.7572 23.1833C15.6891 23.118 15.5982 23.082 15.5039 23.083C15.4095 23.0839 15.3193 23.1219 15.2526 23.1886C15.1859 23.2553 15.148 23.3454 15.1471 23.4398C15.1461 23.5341 15.1821 23.625 15.2474 23.6931L16.195 24.6407C16.2631 24.706 16.354 24.742 16.4484 24.7411C16.5427 24.7401 16.6329 24.7022 16.6996 24.6355C16.7663 24.5688 16.8042 24.4786 16.8052 24.3843C16.8061 24.29 16.7701 24.199 16.7048 24.1309ZM14.8096 22.2357L13.862 21.2902C13.8289 21.2556 13.7893 21.228 13.7454 21.2089C13.7015 21.1899 13.6543 21.1798 13.6064 21.1792C13.5586 21.1787 13.5111 21.1877 13.4668 21.2058C13.4225 21.2238 13.3823 21.2505 13.3485 21.2844C13.3146 21.3182 13.2879 21.3585 13.2698 21.4028C13.2518 21.4471 13.2428 21.4945 13.2433 21.5424C13.2438 21.5902 13.2539 21.6374 13.273 21.6813C13.2921 21.7252 13.3197 21.7648 13.3543 21.7979L14.3019 22.7455C14.3693 22.8127 14.4606 22.8504 14.5557 22.8504C14.6509 22.8504 14.7422 22.8127 14.8096 22.7455C14.8768 22.6777 14.9145 22.5861 14.9145 22.4906C14.9145 22.3952 14.8768 22.3036 14.8096 22.2357Z" fill="#FFCD00"/>
<path d="M20.0552 27.4817L19.5455 27.9915L19.0377 27.4817C18.9729 27.4139 18.9372 27.3234 18.9383 27.2296C18.9393 27.1357 18.9771 27.046 19.0434 26.9797C19.1098 26.9133 19.1994 26.8756 19.2933 26.8745C19.3871 26.8735 19.4776 26.9092 19.5455 26.974L20.0552 27.4817Z" fill="#FFCD00"/>
<path d="M27.9919 19.5457L27.4821 20.0555L26.9744 19.5457C26.9095 19.4779 26.8738 19.3873 26.8749 19.2935C26.876 19.1997 26.9137 19.11 26.9801 19.0437C27.0464 18.9773 27.1361 18.9396 27.2299 18.9385C27.3238 18.9374 27.4143 18.9731 27.4821 19.038L27.9919 19.5457Z" fill="#FFCD00"/>
<path d="M26.5345 18.0901L25.5869 17.1425C25.5193 17.0752 25.4277 17.0375 25.3323 17.0377C25.2369 17.0378 25.1455 17.0759 25.0781 17.1435C25.0108 17.2111 24.9731 17.3027 24.9733 17.3981C24.9735 17.4935 25.0116 17.585 25.0792 17.6523L26.0268 18.5978C26.0598 18.6324 26.0994 18.66 26.1433 18.6791C26.1872 18.6982 26.2345 18.7082 26.2823 18.7088C26.3301 18.7093 26.3776 18.7003 26.4219 18.6822C26.4662 18.6642 26.5064 18.6375 26.5403 18.6036C26.5741 18.5698 26.6008 18.5296 26.6189 18.4853C26.6369 18.441 26.646 18.3935 26.6454 18.3456C26.6449 18.2978 26.6348 18.2506 26.6157 18.2067C26.5967 18.1628 26.5691 18.1232 26.5345 18.0901ZM24.6413 16.1949L23.6937 15.2473C23.6257 15.182 23.5347 15.146 23.4404 15.1469C23.3461 15.1479 23.2559 15.1858 23.1892 15.2525C23.1225 15.3192 23.0846 15.4094 23.0836 15.5037C23.0826 15.5981 23.1186 15.689 23.1839 15.7571L24.1315 16.7047C24.1648 16.7393 24.2046 16.7669 24.2486 16.786C24.2926 16.805 24.34 16.8151 24.388 16.8156C24.436 16.8161 24.4835 16.807 24.528 16.7889C24.5724 16.7707 24.6127 16.7439 24.6466 16.71C24.6806 16.6761 24.7074 16.6357 24.7255 16.5913C24.7436 16.5469 24.7527 16.4993 24.7522 16.4513C24.7517 16.4034 24.7417 16.356 24.7226 16.3119C24.7036 16.2679 24.6759 16.2281 24.6413 16.1949ZM22.7461 14.3018L21.7985 13.3541C21.7655 13.3196 21.7258 13.2919 21.6819 13.2729C21.6381 13.2538 21.5908 13.2437 21.543 13.2432C21.4951 13.2426 21.4477 13.2517 21.4034 13.2697C21.3591 13.2878 21.3188 13.3145 21.285 13.3483C21.2512 13.3822 21.2244 13.4224 21.2064 13.4667C21.1883 13.511 21.1793 13.5585 21.1798 13.6063C21.1804 13.6542 21.1905 13.7014 21.2095 13.7453C21.2286 13.7892 21.2562 13.8288 21.2908 13.8619L22.2363 14.8095C22.2697 14.8429 22.3093 14.8695 22.3529 14.8877C22.3965 14.9059 22.4433 14.9153 22.4905 14.9153C22.5377 14.9154 22.5845 14.9062 22.6282 14.8882C22.6719 14.8703 22.7116 14.8438 22.7451 14.8105C22.7786 14.7772 22.8051 14.7376 22.8233 14.6939C22.8415 14.6503 22.8509 14.6036 22.851 14.5563C22.8511 14.5091 22.8418 14.4623 22.8239 14.4186C22.8059 14.3749 22.7795 14.3352 22.7461 14.3018Z" fill="#FFCD00"/>
<path d="M20.8509 12.9165C20.8174 12.9499 20.7776 12.9764 20.7339 12.9943C20.6901 13.0123 20.6433 13.0215 20.596 13.0214C20.5488 13.0214 20.5021 13.0119 20.4587 12.9936C20.4153 12.9752 20.376 12.9483 20.3431 12.9145L19.8334 12.4067L20.3431 11.897L20.8509 12.4067C20.8846 12.4401 20.9113 12.4798 20.9296 12.5235C20.9479 12.5673 20.9573 12.6142 20.9573 12.6616C20.9573 12.709 20.9479 12.756 20.9296 12.7997C20.9113 12.8435 20.8846 12.8832 20.8509 12.9165Z" fill="#FFCD00"/>
<path d="M18.8138 18L19.548 18.3741C19.6618 18.4321 19.791 18.4526 19.9172 18.4326C20.0433 18.4126 20.1599 18.3532 20.2502 18.2629L20.8329 17.6802C20.9232 17.5898 21.0398 17.5304 21.1659 17.5104C21.292 17.4904 21.4212 17.5108 21.535 17.5688C21.6488 17.6268 21.7413 17.7193 21.7993 17.8331C21.8572 17.9469 21.8776 18.0761 21.8576 18.2023L21.7287 19.0163C21.7087 19.1424 21.7291 19.2716 21.7871 19.3854C21.8451 19.4992 21.9376 19.5917 22.0515 19.6496L22.7857 20.0237C22.8995 20.0817 22.992 20.1742 23.0499 20.288C23.1079 20.4018 23.1284 20.531 23.1084 20.6571C23.0884 20.7833 23.029 20.8998 22.9387 20.9901C22.8483 21.0804 22.7318 21.1398 22.6056 21.1598L21.7918 21.2887C21.6657 21.3086 21.5492 21.368 21.4589 21.4582C21.3686 21.5485 21.3092 21.6651 21.2893 21.7912L21.1604 22.605C21.1404 22.7312 21.081 22.8477 20.9907 22.938C20.9004 23.0284 20.7839 23.0878 20.6577 23.1078C20.5316 23.1278 20.4024 23.1073 20.2886 23.0493C20.1748 22.9914 20.0823 22.8989 20.0243 22.7851L19.6502 22.0508C19.5922 21.9371 19.4997 21.8446 19.386 21.7866C19.2722 21.7286 19.143 21.7081 19.0169 21.7281L18.2029 21.857C18.0767 21.877 17.9475 21.8566 17.8337 21.7987C17.7199 21.7407 17.6274 21.6482 17.5694 21.5344C17.5115 21.4206 17.491 21.2914 17.511 21.1653C17.531 21.0391 17.5904 20.9226 17.6808 20.8323L18.2635 20.2496C18.3538 20.1593 18.4132 20.0427 18.4332 19.9166C18.4532 19.7904 18.4327 19.6612 18.3747 19.5474L18 18.8138C17.9416 18.6999 17.9208 18.5705 17.9407 18.4441C17.9605 18.3177 18.02 18.2009 18.1104 18.1104C18.2009 18.02 18.3177 17.9606 18.4441 17.9407C18.5705 17.9209 18.6999 17.9416 18.8138 18Z" fill="#FF990D"/>
</svg>
