<svg width="34" height="36" viewBox="0 0 34 36" fill="none" xmlns="http://www.w3.org/2000/svg">
<path d="M17.987 18.5029H15.6798C15.181 18.5029 14.7767 18.9073 14.7767 19.406V21.7132C14.7767 22.212 15.181 22.6163 15.6798 22.6163H17.987C18.4858 22.6163 18.8901 22.212 18.8901 21.7132V19.406C18.89 18.9073 18.4857 18.5029 17.987 18.5029Z" fill="#E75249"/>
<path d="M8.65471 18.5029H6.34755C5.84882 18.5029 5.44446 18.9073 5.44446 19.406V21.7132C5.44446 22.212 5.84875 22.6163 6.34755 22.6163H8.65471C9.15351 22.6163 9.5578 22.212 9.5578 21.7132V19.406C9.5578 18.9073 9.15344 18.5029 8.65471 18.5029Z" fill="#E75249"/>
<path d="M25.0122 18.5029H27.3194C27.8182 18.5029 28.2225 18.9073 28.2225 19.406V21.7132C28.2225 22.212 27.8182 22.6163 27.3194 22.6163H25.0122C24.5135 22.6163 24.1091 22.212 24.1091 21.7132V19.406C24.1091 18.9073 24.5135 18.5029 25.0122 18.5029Z" fill="#E75249"/>
<path d="M17.987 25.8032H15.6798C15.181 25.8032 14.7767 26.2075 14.7767 26.7063V29.0135C14.7767 29.5123 15.181 29.9166 15.6798 29.9166H17.987C18.4858 29.9166 18.8901 29.5123 18.8901 29.0135V26.7063C18.89 26.2076 18.4857 25.8032 17.987 25.8032Z" fill="#E75249"/>
<path d="M8.65471 25.8032H6.34755C5.84882 25.8032 5.44446 26.2075 5.44446 26.7063V29.0135C5.44446 29.5123 5.84875 29.9166 6.34755 29.9166H8.65471C9.15351 29.9166 9.5578 29.5123 9.5578 29.0135V26.7063C9.5578 26.2076 9.15344 25.8032 8.65471 25.8032Z" fill="#E75249"/>
<path d="M25.0122 25.8032H27.3194C27.8182 25.8032 28.2225 26.2075 28.2225 26.7063V29.0135C28.2225 29.5123 27.8182 29.9166 27.3194 29.9166H25.0122C24.5135 29.9166 24.1091 29.5123 24.1091 29.0135V26.7063C24.1091 26.2076 24.5135 25.8032 25.0122 25.8032Z" fill="#E75249"/>
<path d="M26.7574 4.52148H6.90925C3.74737 4.52148 1.1842 7.08465 1.1842 10.2465V15.0979H32.4826V10.2465C32.4826 7.08472 29.9193 4.52148 26.7574 4.52148Z" fill="#E75249"/>
<path d="M32.4827 24.3906C32.4827 26.9807 30.651 27.4652 29.042 27.4652C26.5199 27.4652 24.4754 29.5098 24.4754 32.0318C24.4754 33.6409 23.9909 35.4726 21.4008 35.4726C27.5211 35.4726 32.4827 30.511 32.4827 24.3906Z" fill="#E75249"/>
<path d="M7.50092 7.88279C6.36502 7.88279 5.44421 6.96198 5.44421 5.82608V2.58398C5.44421 1.44808 6.36502 0.527344 7.50092 0.527344C8.63682 0.527344 9.55756 1.44815 9.55756 2.58398V5.82608C9.55763 6.96198 8.63682 7.88279 7.50092 7.88279Z" fill="#E75249"/>
<path d="M16.8334 7.88279C15.6975 7.88279 14.7767 6.96198 14.7767 5.82608V2.58398C14.7767 1.44808 15.6975 0.527344 16.8334 0.527344C17.9693 0.527344 18.8901 1.44815 18.8901 2.58398V5.82608C18.89 6.96198 17.9693 7.88279 16.8334 7.88279Z" fill="#E75249"/>
<path d="M26.1658 7.88279C27.3017 7.88279 28.2225 6.96198 28.2225 5.82608V2.58398C28.2225 1.44808 27.3017 0.527344 26.1658 0.527344C25.0299 0.527344 24.1091 1.44815 24.1091 2.58398V5.82608C24.1091 6.96198 25.0299 7.88279 26.1658 7.88279Z" fill="#E75249"/>
<path d="M10.085 29.0134V26.7063C10.085 25.9175 9.44337 25.2758 8.65461 25.2758H6.34745C5.55869 25.2758 4.91702 25.9175 4.91702 26.7063V29.0134C4.91702 29.8022 5.55869 30.4438 6.34745 30.4438H8.65461C9.44344 30.4438 10.085 29.8021 10.085 29.0134ZM5.9717 29.0134V26.7063C5.9717 26.4991 6.14024 26.3305 6.34745 26.3305H8.65461C8.86175 26.3305 9.03036 26.4991 9.03036 26.7063V29.0134C9.03036 29.2206 8.86182 29.3892 8.65461 29.3892H6.34745C6.14031 29.3891 5.9717 29.2206 5.9717 29.0134ZM6.34745 23.1435H8.65461C9.44337 23.1435 10.085 22.5019 10.085 21.7131V19.4059C10.085 18.6171 9.44337 17.9754 8.65461 17.9754H6.34745C5.55869 17.9754 4.91702 18.6171 4.91702 19.4059V21.7131C4.91702 22.5019 5.55869 23.1435 6.34745 23.1435ZM5.9717 19.4059C5.9717 19.1988 6.14024 19.0302 6.34745 19.0302H8.65461C8.86175 19.0302 9.03036 19.1987 9.03036 19.4059V21.7132C9.03036 21.9203 8.86182 22.0889 8.65461 22.0889H6.34745C6.14031 22.0889 5.9717 21.9204 5.9717 21.7132V19.4059ZM17.5935 10.7671C17.4016 10.9873 17.1246 11.1136 16.8334 11.1136C16.5423 11.1136 16.2652 10.9873 16.0733 10.7671C15.882 10.5475 15.5489 10.5247 15.3294 10.716C15.1098 10.9073 15.0869 11.2405 15.2782 11.46C15.6704 11.9101 16.2372 12.1683 16.8333 12.1683C17.4295 12.1683 17.9963 11.9101 18.3885 11.46C18.5799 11.2405 18.557 10.9073 18.3373 10.716C18.1179 10.5247 17.7847 10.5474 17.5935 10.7671ZM32.4826 10.045C32.1912 10.045 31.9552 10.281 31.9552 10.5723V14.5705H1.71162V10.2465C1.71162 8.1248 2.99988 6.23959 4.91709 5.44527V5.82608C4.91709 7.25089 6.07626 8.41006 7.50114 8.41006C8.92595 8.41006 10.0851 7.25089 10.0851 5.82608V5.04885H14.2494V5.82608C14.2494 7.25089 15.4086 8.41006 16.8335 8.41006C18.2583 8.41006 19.4175 7.25089 19.4175 5.82608V5.04885H23.5819V5.82608C23.5819 7.25089 24.741 8.41006 26.1658 8.41006C27.5907 8.41006 28.7499 7.25089 28.7499 5.82608V5.4459C30.0248 5.97676 31.0571 7.00726 31.5801 8.30347C31.6894 8.57438 31.9972 8.70383 32.2665 8.59512C32.5366 8.48614 32.6671 8.17887 32.5581 7.90874C31.8748 6.21519 30.4683 4.89838 28.7499 4.31978V2.58405C28.7498 1.15917 27.5906 0 26.1658 0C24.741 0 23.5818 1.15917 23.5818 2.58405V3.99416H19.4174V2.58405C19.4174 1.15917 18.2582 0 16.8334 0C15.4085 0 14.2494 1.15917 14.2494 2.58405V3.99416H10.085V2.58405C10.085 1.15917 8.92588 0 7.50107 0C6.07619 0 4.91702 1.15917 4.91702 2.58405V4.32048C2.38943 5.16831 0.65686 7.54831 0.65686 10.2466V30.906C0.65686 33.1432 2.08976 35.0965 4.22233 35.7665C4.5007 35.8541 4.79636 35.6986 4.88348 35.4215C4.97073 35.1436 4.81626 34.8476 4.53845 34.7603C2.84758 34.2291 1.71155 32.6802 1.71155 30.9061V15.6252H31.9552V24.3907C31.9552 26.1524 31.0567 26.938 29.0418 26.938C28.9437 26.938 28.8465 26.9414 28.7497 26.9469V26.7063C28.7497 25.9175 28.1081 25.2758 27.3193 25.2758H25.0121C24.2234 25.2758 23.5817 25.9175 23.5817 26.7063V29.0134C23.5817 29.5285 23.8614 29.9834 24.276 30.2353C24.0645 30.7944 23.9479 31.3997 23.9479 32.0319C23.9479 34.0467 23.1623 34.9453 21.4006 34.9453H6.94567C6.65436 34.9453 6.41833 35.1814 6.41833 35.4727C6.41833 35.764 6.65436 36 6.94567 36H21.4007C27.8021 36 33.0099 30.7921 33.0099 24.3907V10.5723C33.0099 10.2811 32.7739 10.045 32.4826 10.045ZM24.6365 2.58405C24.6365 1.74079 25.3225 1.05469 26.1658 1.05469C27.009 1.05469 27.6951 1.74079 27.6951 2.58405V5.82608C27.6951 6.66934 27.009 7.35538 26.1658 7.35538C25.3225 7.35538 24.6365 6.66934 24.6365 5.82608V2.58405ZM15.304 2.58405C15.304 1.74079 15.9902 1.05469 16.8334 1.05469C17.6767 1.05469 18.3627 1.74079 18.3627 2.58405V5.82608C18.3627 6.66934 17.6767 7.35538 16.8334 7.35538C15.9902 7.35538 15.304 6.66934 15.304 5.82608V2.58405ZM5.9717 2.58405C5.9717 1.74079 6.65781 1.05469 7.50107 1.05469C8.34432 1.05469 9.03036 1.74079 9.03036 2.58405V5.82608C9.03036 6.66934 8.34432 7.35538 7.50107 7.35538C6.65781 7.35538 5.9717 6.66934 5.9717 5.82608V2.58405ZM24.6365 26.7062C24.6365 26.499 24.805 26.3304 25.0122 26.3304H27.3194C27.5265 26.3304 27.6951 26.499 27.6951 26.7062V27.12C26.4692 27.4566 25.4273 28.2404 24.7556 29.2848C24.6828 29.2162 24.6365 29.1199 24.6365 29.0133V26.7062ZM24.4447 34.4971C24.7889 33.9109 25.0027 33.1129 25.0027 32.0319C25.0027 29.8046 26.8147 27.9926 29.0419 27.9926C30.1229 27.9926 30.921 27.7789 31.5071 27.4348C30.4883 30.8108 27.8208 33.4783 24.4447 34.4971ZM11.9151 10.2949V11.1386C11.9151 11.4299 12.1512 11.6659 12.4425 11.6659C12.7338 11.6659 12.9698 11.4299 12.9698 11.1386V10.2949C12.9698 10.0036 12.7338 9.76751 12.4425 9.76751C12.1512 9.76751 11.9151 10.0036 11.9151 10.2949ZM20.6969 10.2949V11.1386C20.6969 11.4299 20.933 11.6659 21.2243 11.6659C21.5156 11.6659 21.7516 11.4299 21.7516 11.1386V10.2949C21.7516 10.0036 21.5156 9.76751 21.2243 9.76751C20.933 9.76751 20.6969 10.0036 20.6969 10.2949ZM25.0121 23.1435H27.3193C28.1081 23.1435 28.7497 22.5019 28.7497 21.7131V19.4059C28.7497 18.6171 28.1081 17.9754 27.3193 17.9754H25.0121C24.2234 17.9754 23.5817 18.6171 23.5817 19.4059V21.7131C23.5818 22.5019 24.2235 23.1435 25.0121 23.1435ZM24.6365 19.4059C24.6365 19.1988 24.805 19.0302 25.0122 19.0302H27.3194C27.5265 19.0302 27.6951 19.1987 27.6951 19.4059V21.7132C27.6951 21.9203 27.5266 22.0889 27.3194 22.0889H25.0121C24.805 22.0889 24.6364 21.9204 24.6364 21.7132V19.4059H24.6365ZM14.2494 29.0134C14.2494 29.8022 14.8911 30.4438 15.6799 30.4438H17.987C18.7758 30.4438 19.4175 29.8022 19.4175 29.0134V26.7063C19.4175 25.9175 18.7758 25.2758 17.987 25.2758H15.6799C14.8911 25.2758 14.2494 25.9175 14.2494 26.7063V29.0134ZM15.304 26.7062C15.304 26.499 15.4727 26.3304 15.6799 26.3304H17.987C18.1942 26.3304 18.3628 26.499 18.3628 26.7062V29.0133C18.3628 29.2205 18.1942 29.3891 17.987 29.3891H15.6799C15.4727 29.3891 15.304 29.2206 15.304 29.0133V26.7062ZM15.6799 23.1435H17.987C18.7758 23.1435 19.4175 22.5019 19.4175 21.7131V19.4059C19.4175 18.6171 18.7758 17.9754 17.987 17.9754H15.6799C14.8911 17.9754 14.2494 18.6171 14.2494 19.4059V21.7131C14.2494 22.5019 14.8911 23.1435 15.6799 23.1435ZM15.304 19.4059C15.304 19.1988 15.4727 19.0302 15.6799 19.0302H17.987C18.1942 19.0302 18.3628 19.1987 18.3628 19.4059V21.7132C18.3628 21.9203 18.1942 22.0889 17.987 22.0889H15.6799C15.4727 22.0889 15.304 21.9204 15.304 21.7132V19.4059Z" fill="#1E1F22"/>
</svg>
