<svg width="26" height="26" viewBox="0 0 26 26" fill="none" xmlns="http://www.w3.org/2000/svg">
<path fill-rule="evenodd" clip-rule="evenodd" d="M23.4152 10.3686L13.3116 2.38717C13.1332 2.24625 12.8668 2.24625 12.6884 2.38717L2.58481 10.3686C2.25602 10.6284 2.45949 11.1173 2.89638 11.1173H23.1036C23.5405 11.1173 23.744 10.6284 23.4152 10.3686ZM14.2463 1.42276C13.5327 0.859081 12.4673 0.85908 11.7537 1.42276L1.6501 9.40423C0.334947 10.4432 1.14884 12.3988 2.89638 12.3988H23.1036C24.8512 12.3988 25.6651 10.4432 24.3499 9.40423L14.2463 1.42276Z" fill="white" stroke="white" stroke-width="0.5"/>
<path fill-rule="evenodd" clip-rule="evenodd" d="M4.39535 12V22.5763C4.39535 23.1847 4.91595 23.678 5.55814 23.678H20.4419C21.0841 23.678 21.6047 23.1847 21.6047 22.5763V12H23V22.5763C23 23.9149 21.8547 25 20.4419 25H5.55814C4.14532 25 3 23.9149 3 22.5763V12H4.39535Z" fill="white" stroke="white" stroke-width="0.5"/>
<path fill-rule="evenodd" clip-rule="evenodd" d="M15.1052 24.3594L15.1052 19.2334C15.1052 18.6437 14.6271 18.1655 14.0373 18.1655L12.3287 18.1655C11.7389 18.1655 11.2608 18.6437 11.2608 19.2334L11.2608 24.3594L9.97931 24.3594L9.97931 19.2334C9.97931 17.9359 11.0312 16.8841 12.3287 16.8841L14.0373 16.8841C15.3349 16.8841 16.3867 17.9359 16.3867 19.2334L16.3867 24.3594L15.1052 24.3594Z" fill="white" stroke="white" stroke-width="0.5"/>
</svg>
