<svg width="23" height="24" viewBox="0 0 23 24" fill="none" xmlns="http://www.w3.org/2000/svg">
<g clip-path="url(#clip0_4355_7435)">
<path fill-rule="evenodd" clip-rule="evenodd" d="M3.56018 2.13379C3.56018 0.956772 4.51695 0 5.69397 0C6.87095 0 7.82772 0.956781 7.82772 2.13379V2.55627H9.53288V2.13379C9.53288 0.956772 10.4897 0 11.6667 0C12.8437 0 13.8004 0.956781 13.8004 2.13379V2.55627H15.5056V2.13379C15.5056 0.956781 16.4624 0 17.6394 0C18.8163 0 19.7732 0.956762 19.7732 2.13379V2.91434C20.8449 3.37196 21.7128 4.23981 22.1627 5.33025C22.3594 5.8071 22.4996 6.90082 22.4996 7.24628C22.4996 7.24628 21.5031 7.24628 20.8646 7.24628C20.8646 6.72832 20.8491 6.44004 20.6594 5.97382C20.4305 5.41126 20.1255 5.05632 19.7047 4.74608C19.466 5.66358 18.6309 6.34244 17.6394 6.34244C16.4624 6.34244 15.5057 5.38567 15.5057 4.20869V4.19126H13.8005V4.20869C13.8005 5.38567 12.8437 6.34244 11.6667 6.34244C10.4897 6.34244 9.53293 5.38568 9.53293 4.20869V4.19126H7.82776V4.20869C7.82776 5.38567 6.87099 6.34244 5.69402 6.34244C4.70208 6.34244 3.86655 5.6629 3.62833 4.7447C2.91611 5.26946 2.46872 6.11276 2.46872 7.03775V9.32511H20.8646C20.8646 9.32511 20.8646 8.05811 20.8646 7.24628C21.5031 7.24628 22.4996 7.24628 22.4996 7.24628V16.0901C22.4996 20.452 18.9517 24 14.5897 24H5.33852C4.88699 24 4.52102 23.634 4.52102 23.1825C4.52102 22.731 4.88698 22.365 5.33852 22.365H14.5896C15.0765 22.365 15.3247 22.2422 15.4663 22.0803C15.6206 21.9038 15.7399 21.5783 15.7399 20.9804C15.7399 20.6374 15.7868 20.305 15.8739 19.989C15.6468 19.7418 15.5056 19.4119 15.5056 19.0486V17.572C15.5056 16.8021 16.1312 16.1765 16.9011 16.1765H18.3776C19.0305 16.1765 19.5796 16.6263 19.7314 17.2325C20.1724 17.2037 20.43 17.0978 20.58 16.9666C20.7419 16.8251 20.8646 16.5769 20.8646 16.09V10.9602H2.46868V20.2599C2.46868 21.1859 3.05993 21.9916 3.94176 22.2687C4.37255 22.404 4.61189 22.8629 4.47667 23.2935C4.34174 23.7228 3.88366 23.9644 3.45148 23.8284C1.8865 23.3366 0.833679 21.901 0.833679 20.2598V7.03779C0.833679 5.22235 1.9275 3.6083 3.56018 2.91428V2.13379ZM5.69396 1.635C5.41937 1.635 5.19516 1.85921 5.19516 2.13379V4.20869C5.19516 4.48325 5.41934 4.70744 5.69396 4.70744C5.96854 4.70744 6.1927 4.48328 6.1927 4.20869V2.13379C6.1927 1.85918 5.96851 1.635 5.69396 1.635ZM11.1679 2.13379C11.1679 1.85921 11.3921 1.635 11.6667 1.635C11.9412 1.635 12.1654 1.85918 12.1654 2.13379V4.20869C12.1654 4.48328 11.9412 4.70744 11.6667 4.70744C11.392 4.70744 11.1679 4.48325 11.1679 4.20869V2.13379ZM17.4967 17.8114C17.3729 17.8892 17.254 17.9739 17.1406 18.0651V17.8114H17.4967ZM20.2396 18.8177C20.006 18.8557 19.7531 18.8752 19.4801 18.8752C18.3198 18.8752 17.375 19.82 17.375 20.9804C17.375 21.2534 17.3554 21.5063 17.3174 21.7399C18.5891 21.1233 19.623 20.0894 20.2396 18.8177ZM17.1406 2.13379C17.1406 1.85918 17.3648 1.635 17.6394 1.635C17.9139 1.635 18.1382 1.85921 18.1382 2.13379V4.20869C18.1382 4.48325 17.914 4.70744 17.6394 4.70744C17.3648 4.70744 17.1406 4.48328 17.1406 4.20869V2.13379Z" fill="white"/>
<path fill-rule="evenodd" clip-rule="evenodd" d="M3.56018 12.881C3.56018 12.1111 4.18575 11.4855 4.95566 11.4855H6.43224C7.20214 11.4855 7.82772 12.1111 7.82772 12.881V14.3576C7.82772 15.1275 7.20215 15.7531 6.43224 15.7531H4.95566C4.18575 15.7531 3.56018 15.1275 3.56018 14.3576V12.881ZM5.19516 13.1205V14.1181H6.1927V13.1205H5.19516Z" fill="white"/>
<path fill-rule="evenodd" clip-rule="evenodd" d="M10.9284 11.4855C10.1585 11.4855 9.53288 12.1111 9.53288 12.881V14.3576C9.53288 15.1276 10.1585 15.7531 10.9284 15.7531H12.405C13.1749 15.7531 13.8005 15.1275 13.8005 14.3576V12.881C13.8005 12.1111 13.1749 11.4855 12.405 11.4855H10.9284ZM11.1679 14.1181V13.1205H12.1654V14.1181H11.1679Z" fill="white"/>
<path fill-rule="evenodd" clip-rule="evenodd" d="M15.5056 12.881C15.5056 12.1111 16.1312 11.4855 16.9011 11.4855H18.3776C19.1475 11.4855 19.7731 12.1111 19.7731 12.881V14.3576C19.7731 15.1275 19.1476 15.7531 18.3776 15.7531H16.9011C16.1312 15.7531 15.5057 15.1275 15.5056 14.3577V12.881ZM17.1406 13.1205L17.1406 14.1181H18.1382V13.1205H17.1406Z" fill="white"/>
<path fill-rule="evenodd" clip-rule="evenodd" d="M4.95566 16.1578C4.18575 16.1578 3.56018 16.7833 3.56018 17.5533V19.0298C3.56018 19.7997 4.18575 20.4253 4.95566 20.4253H6.43228C7.20219 20.4252 7.82772 19.7997 7.82772 19.0298V17.5533C7.82772 16.7833 7.20214 16.1578 6.43224 16.1578H4.95566ZM5.19516 17.7928V18.7904H6.1927V17.7928H5.19516Z" fill="white"/>
<path fill-rule="evenodd" clip-rule="evenodd" d="M9.53288 17.5533C9.53288 16.7833 10.1585 16.1578 10.9284 16.1578H12.405C13.1749 16.1578 13.8005 16.7833 13.8005 17.5533V19.0298C13.8005 19.7997 13.1749 20.4253 12.405 20.4253H10.9284C10.1585 20.4253 9.53288 19.7998 9.53288 19.0298V17.5533ZM11.1679 18.7902V17.7927H12.1654V18.7902H11.1679Z" fill="white"/>
</g>
<defs>
<clipPath id="clip0_4355_7435">
<rect width="22.6667" height="24" fill="white" transform="translate(0.333313)"/>
</clipPath>
</defs>
</svg>
