<svg width="40" height="40" viewBox="0 0 40 40" fill="none" xmlns="http://www.w3.org/2000/svg">
<rect y="0.000488281" width="40" height="40" rx="20" fill="#30C6F6"/>
<path d="M39.4218 24.7944C37.6225 32.1084 31.7996 37.8399 24.4346 39.5071L14.9599 30.0325L18.1066 28.2379L13.4349 23.4718L26.2105 11.5786L39.4218 24.7944Z" fill="black" fill-opacity="0.3"/>
<path d="M21.5541 28.0381H21.5579C23.7308 28.2239 25.3083 28.8003 25.3083 29.4829C25.3083 30.3209 22.9306 30.9997 19.9993 30.9997C17.0681 30.9997 14.6904 30.3209 14.6904 29.4829C14.6904 28.8003 16.2679 28.2239 18.4408 28.0381H21.5541Z" fill="#F0C419"/>
<path d="M11.2776 17.728C11.2748 13.3265 14.552 9.61261 18.9197 9.06772C23.2873 8.52284 27.3765 11.3177 28.4552 15.585C29.5339 19.8523 27.2639 24.2546 23.162 25.8506L20.7806 29.0929C20.5958 29.3382 20.3065 29.4825 19.9994 29.4825C19.6923 29.4825 19.403 29.3382 19.2182 29.0929L16.8368 25.8506C13.4874 24.5468 11.2804 21.3222 11.2776 17.728Z" fill="#1F98DD"/>
<path d="M27.2043 17.7284C27.2059 20.6837 25.4016 23.3399 22.6539 24.4276C19.9061 25.5153 16.7726 24.8137 14.751 22.6581C14.5255 22.4209 14.3176 22.1674 14.1291 21.8997C13.2582 20.6834 12.7913 19.2243 12.7943 17.7284C12.7943 13.7492 16.0201 10.5234 19.9993 10.5234C23.9785 10.5234 27.2043 13.7492 27.2043 17.7284Z" fill="white"/>
<path d="M21.5161 18.1067V21.1403C21.5161 21.3498 21.3464 21.5195 21.1369 21.5195H19.6201V22.2779C19.6202 22.4037 19.5579 22.5214 19.4539 22.5921C19.3498 22.6627 19.2174 22.6772 19.1006 22.6306L16.0669 21.4171C15.9225 21.3596 15.8279 21.2199 15.828 21.0645V13.9354C15.828 13.7259 15.9978 13.5562 16.2072 13.5562H21.1369C21.3464 13.5562 21.5161 13.7259 21.5161 13.9354V18.1067Z" fill="#30C6F6"/>
<path d="M25.1907 17.6415L23.727 19.1242C23.6104 19.2418 23.434 19.2768 23.2813 19.2126C23.1287 19.1484 23.0304 18.9978 23.033 18.8322V18.1079H19.6201V16.5911H23.033V15.8668C23.0304 15.7012 23.1287 15.5506 23.2813 15.4864C23.434 15.4221 23.6104 15.4571 23.727 15.5748L25.1907 17.0575C25.3461 17.2211 25.3461 17.4778 25.1907 17.6415Z" fill="#FF5364"/>
<path d="M19.6201 15.3318V22.2789C19.6202 22.4047 19.5579 22.5224 19.4539 22.593C19.3498 22.6637 19.2174 22.6781 19.1006 22.6316L16.0669 21.4181C15.9225 21.3606 15.8279 21.2208 15.828 21.0654V13.9363C15.8292 13.8106 15.8915 13.6932 15.9949 13.6216L19.3812 14.9791C19.5256 15.0366 19.6202 15.1764 19.6201 15.3318Z" fill="#C1EEFD"/>
</svg>
