<svg width="40" height="40" viewBox="0 0 40 40" fill="none" xmlns="http://www.w3.org/2000/svg">
<g clip-path="url(#clip0_2754_5121)">
<path d="M20 40.0005C31.0457 40.0005 40 31.0462 40 20.0005C40 8.95479 31.0457 0.000488281 20 0.000488281C8.9543 0.000488281 0 8.95479 0 20.0005C0 31.0462 8.9543 40.0005 20 40.0005Z" fill="#E74A2F"/>
<path d="M21.5458 39.9413C30.1499 39.2836 37.2303 33.1814 39.3501 25.0732L28.2519 13.9751L17.7507 21.5219L21.303 25.0742L12.1989 30.5944L21.5458 39.9413Z" fill="black" fill-opacity="0.3"/>
<path d="M23.1593 8.88281H13.4073C12.491 8.88281 11.7482 9.6257 11.7482 10.542V29.4592C11.7482 30.3755 12.4911 31.1183 13.4073 31.1183H26.5928C27.5091 31.1183 28.2519 30.3754 28.2519 29.4592V13.9754L23.1593 8.88281Z" fill="white"/>
<path d="M25.4702 18.5488H14.4363V19.3505H25.4702V18.5488Z" fill="#F3A597"/>
<path d="M25.4702 20.5298H14.4363V21.3314H25.4702V20.5298Z" fill="#F3A597"/>
<path d="M25.4702 22.7588H14.4363V23.5604H25.4702V22.7588Z" fill="#F3A597"/>
<path d="M20.189 24.8345H14.4363V25.6361H20.189V24.8345Z" fill="#F3A597"/>
<path d="M24.8185 13.9753H28.2519L23.1594 8.88281V12.3162C23.1593 13.2325 23.9022 13.9753 24.8185 13.9753Z" fill="#F3A597"/>
</g>
<defs>
<clipPath id="clip0_2754_5121">
<rect width="40" height="40" fill="white" transform="translate(0 0.000488281)"/>
</clipPath>
</defs>
</svg>
