<svg width="20" height="21" viewBox="0 0 20 21" fill="none" xmlns="http://www.w3.org/2000/svg">
<path d="M17.5437 14.6625L16.4749 13.125C16.3291 12.916 16.2506 12.6674 16.2499 12.4125V8C16.2499 6.3424 15.5915 4.75268 14.4194 3.58058C13.2473 2.40848 11.6576 1.75 9.99995 1.75C8.34235 1.75 6.75264 2.40848 5.58054 3.58058C4.40844 4.75268 3.74996 6.3424 3.74996 8V12.4125C3.74935 12.6674 3.67085 12.916 3.52496 13.125L2.45621 14.6625C2.29438 14.8418 2.18797 15.0641 2.14983 15.3026C2.1117 15.5411 2.14348 15.7856 2.24133 16.0064C2.33918 16.2272 2.4989 16.415 2.7012 16.5469C2.90349 16.6789 3.13968 16.7494 3.38121 16.75H6.93745C7.0809 17.4564 7.46416 18.0915 8.02229 18.5477C8.58042 19.0039 9.27911 19.2531 9.99995 19.2531C10.7208 19.2531 11.4195 19.0039 11.9776 18.5477C12.5357 18.0915 12.919 17.4564 13.0624 16.75H16.6187C16.8602 16.7494 17.0964 16.6789 17.2987 16.5469C17.501 16.415 17.6607 16.2272 17.7586 16.0064C17.8564 15.7856 17.8882 15.5411 17.8501 15.3026C17.8119 15.0641 17.7055 14.8418 17.5437 14.6625ZM9.99995 18C9.61311 17.9989 9.23608 17.8782 8.92054 17.6544C8.605 17.4306 8.3664 17.1147 8.23745 16.75H11.7625C11.6335 17.1147 11.3949 17.4306 11.0794 17.6544C10.7638 17.8782 10.3868 17.9989 9.99995 18ZM3.38121 15.5C3.40946 15.4738 3.43462 15.4444 3.45621 15.4125L4.54996 13.8375C4.84173 13.4195 4.99875 12.9223 4.99996 12.4125V8C4.99996 6.67392 5.52674 5.40215 6.46442 4.46447C7.4021 3.52678 8.67387 3 9.99995 3C11.326 3 12.5978 3.52678 13.5355 4.46447C14.4732 5.40215 14.9999 6.67392 14.9999 8V12.4125C15.0012 12.9223 15.1582 13.4195 15.4499 13.8375L16.5437 15.4125C16.5653 15.4444 16.5904 15.4738 16.6187 15.5H3.38121Z" fill="white"/>
</svg>
