<svg width="40" height="41" viewBox="0 0 40 41" fill="none" xmlns="http://www.w3.org/2000/svg">
<circle cx="19.9999" cy="14.9331" r="2.85975" fill="#E75249"/>
<path d="M28.322 19.2982L20.6594 25.5134L28.4924 32.3247H35.6016L37.2193 30.6219V24.5769L28.322 19.2982Z" fill="#E75249"/>
<path d="M15.0386 21.8992L2.78662 29.6301L3.9169 32.2522H29.0535L15.0386 21.8992Z" fill="#E75249"/>
<path d="M35 7.73315H5C3.344 7.7351 2.00195 9.07715 2 10.7332V29.9332C2.00195 31.5892 3.344 32.9312 5 32.9332H35C35.1684 32.9338 35.3364 32.9191 35.5022 32.8893C36.9459 32.6477 38.0028 31.3969 38 29.9332V10.7332C37.998 9.07708 36.656 7.7351 35 7.73315ZM5 31.7332C4.06737 31.733 3.28925 31.0206 3.2072 30.0916L15.17 22.27L27.3356 31.7332H5ZM36.8 29.9332C36.801 30.8138 36.1631 31.5652 35.294 31.7074C35.1969 31.7248 35.0985 31.7335 35 31.7332H29.2898L21.3404 25.5466L28.4492 19.8622L36.8 24.8728V29.9332ZM36.8 23.4736L28.709 18.619C28.4939 18.4896 28.221 18.5078 28.025 18.6646L20.3648 24.7906L15.5678 21.0598C15.3657 20.9027 15.0862 20.8911 14.8718 21.031L3.2 28.6624V10.7332C3.2 9.73903 4.00587 8.93315 5 8.93315H35C35.9941 8.93315 36.8 9.73903 36.8 10.7332V23.4736Z" fill="#1E1F22"/>
<path d="M19.9999 11.3331C18.0117 11.3331 16.3999 12.9449 16.3999 14.9331C16.4019 16.9206 18.0125 18.5312 19.9999 18.5331C21.9882 18.5331 23.5999 16.9214 23.5999 14.9331C23.5999 12.9449 21.9882 11.3331 19.9999 11.3331ZM19.9999 17.3331C18.6744 17.3331 17.5999 16.2586 17.5999 14.9331C17.5999 13.6077 18.6744 12.5331 19.9999 12.5331C21.3254 12.5331 22.3999 13.6077 22.3999 14.9331C22.3999 16.2586 21.3254 17.3331 19.9999 17.3331Z" fill="#1E1F22"/>
</svg>
