<svg width="17" height="23" viewBox="0 0 17 23" fill="none" xmlns="http://www.w3.org/2000/svg">
<path d="M8.25 0.99823C4.8125 0.99823 2.0625 3.74823 2.0625 7.18573V9.93573C0.89375 9.93573 0 10.8295 0 11.9982V20.9357C0 22.1045 0.89375 22.9982 2.0625 22.9982H14.4375C15.6062 22.9982 16.5 22.1045 16.5 20.9357V11.9982C16.5 10.8295 15.6062 9.93573 14.4375 9.93573V7.18573C14.4375 3.74823 11.6875 0.99823 8.25 0.99823ZM15.125 11.9982V20.9357C15.125 21.3482 14.85 21.6232 14.4375 21.6232H2.0625C1.65 21.6232 1.375 21.3482 1.375 20.9357V11.9982C1.375 11.5857 1.65 11.3107 2.0625 11.3107H2.75H13.75H14.4375C14.85 11.3107 15.125 11.5857 15.125 11.9982ZM3.4375 9.93573V7.18573C3.4375 4.50448 5.56875 2.37323 8.25 2.37323C10.9312 2.37323 13.0625 4.50448 13.0625 7.18573V9.93573H3.4375Z" fill="#1E1F22"/>
</svg>
