<svg width="40" height="40" viewBox="0 0 40 40" fill="none" xmlns="http://www.w3.org/2000/svg">
<circle cx="20" cy="20" r="20" fill="#30C6F6"/>
<path d="M23.4048 39.7113L14.5073 30.8138C13.8255 31.0529 13.0632 30.7322 12.7641 30.0605L11.9697 28.2763L11.9313 28.2378L11.946 28.223L9.12155 21.8791C8.80663 21.1718 9.12473 20.3431 9.83204 20.0282L19.5893 15.684C19.851 15.5674 20.1585 15.6209 20.3627 15.822C20.7742 16.2271 21.4071 16.3618 21.9665 16.1127C22.5241 15.8645 22.8473 15.3068 22.8239 14.7319C22.8121 14.4435 22.9749 14.1766 23.2386 14.0592L23.9278 13.7524C23.6413 13.6787 23.4295 13.4187 23.4295 13.1092V12.249C23.4295 11.8822 23.7268 11.585 24.0935 11.585H25.6857C25.808 11.585 25.9071 11.4859 25.9071 11.3636V9.77142C25.9071 9.40468 26.2044 9.10742 26.5711 9.10742H27.4314C27.7981 9.10742 28.0953 9.40472 28.0953 9.77142V11.3636C28.0953 11.4859 28.1944 11.585 28.3167 11.585H28.5841L30.3907 11.775L39.9558 21.3401C39.3419 30.6194 32.3994 38.1687 23.4048 39.7113Z" fill="black" fill-opacity="0.3"/>
<path d="M23.2386 14.0591C22.9749 14.1765 22.8121 14.4434 22.8239 14.7318C22.8473 15.3067 22.5241 15.8644 21.9665 16.1126C21.4071 16.3617 20.7742 16.227 20.3627 15.8219C20.1585 15.6208 19.851 15.5673 19.5893 15.6839L9.83204 20.0281C9.12473 20.343 8.80663 21.1717 9.12155 21.879L12.7641 30.0604C13.0791 30.7677 13.9077 31.0858 14.615 30.7709L24.3723 26.4267C24.636 26.3093 24.7988 26.0424 24.787 25.754C24.7636 25.1791 25.0868 24.6214 25.6444 24.3732C26.2038 24.1241 26.8368 24.2588 27.2482 24.6639C27.4524 24.8649 27.7599 24.9184 28.0217 24.8019L30.1679 23.8463C30.8752 23.5314 31.1933 22.7027 30.8784 21.9954L27.2358 13.814C26.9209 13.1067 26.0922 12.7886 25.3849 13.1035L23.2386 14.0591Z" fill="#F6BB93"/>
<path d="M18.2511 21.1062C16.3921 20.3926 14.3067 21.3211 13.5931 23.18C12.8795 25.039 13.808 27.1244 15.667 27.838C17.5259 28.5516 19.6114 27.6231 20.325 25.7641C21.0385 23.9052 20.11 21.8197 18.2511 21.1062ZM16.3953 25.9406C15.5843 25.6293 15.1792 24.7194 15.4906 23.9084C15.8019 23.0973 16.7117 22.6923 17.5228 23.0036C18.3338 23.3149 18.7389 24.2247 18.4276 25.0358C18.1162 25.8468 17.2064 26.2519 16.3953 25.9406Z" fill="#E49775"/>
<path d="M17.3879 20.3098C15.529 19.5962 13.4435 20.5247 12.7299 22.3837C12.0164 24.2426 12.9449 26.3281 14.8038 27.0416C16.6628 27.7552 18.7482 26.8267 19.4618 24.9678C20.1754 23.1088 19.2469 21.0234 17.3879 20.3098ZM15.5322 25.1442C14.7211 24.8329 14.316 23.923 14.6274 23.112C14.9387 22.3009 15.8485 21.8959 16.6596 22.2072C17.4706 22.5185 17.8757 23.4284 17.5644 24.2394C17.253 25.0504 16.3432 25.4555 15.5322 25.1442Z" fill="#EBEEF2"/>
<path d="M19.4616 24.9675C18.7479 26.8267 16.6629 27.755 14.8038 27.0413L15.5322 25.1441C16.3432 25.4554 17.253 25.0503 17.5644 24.2393L19.4616 24.9675Z" fill="#3872B7"/>
<path d="M17.3879 20.3098L16.6596 22.2071C15.8486 21.8958 14.9387 22.3009 14.6274 23.1119L12.7301 22.3836C13.4438 20.5245 15.5288 19.5962 17.3879 20.3098Z" fill="#3872B7"/>
<path d="M29.9089 11.585H28.3167C28.1945 11.585 28.0954 11.4859 28.0954 11.3636V9.77142C28.0954 9.40472 27.7981 9.10742 27.4314 9.10742H26.5711C26.2044 9.10742 25.9071 9.40468 25.9071 9.77142V11.3636C25.9071 11.4859 25.808 11.585 25.6858 11.585H24.0936C23.7269 11.585 23.4296 11.8822 23.4296 12.249V13.1092C23.4296 13.4759 23.7268 13.7732 24.0936 13.7732H25.6858C25.808 13.7732 25.9071 13.8723 25.9071 13.9946V15.5868C25.9071 15.9535 26.2044 16.2508 26.5711 16.2508H27.4314C27.7981 16.2508 28.0954 15.9535 28.0954 15.5868V13.9946C28.0954 13.8723 28.1945 13.7732 28.3167 13.7732H29.9089C30.2756 13.7732 30.5729 13.476 30.5729 13.1092V12.249C30.5729 11.8822 30.2756 11.585 29.9089 11.585Z" fill="#BCD151"/>
<path d="M22.9401 18.5839C22.8167 18.5839 22.6989 18.5126 22.6455 18.3926L22.4961 18.0569C22.4237 17.8943 22.4969 17.7038 22.6594 17.6314C22.822 17.5591 23.0125 17.6322 23.0849 17.7948L23.2343 18.1304C23.3067 18.293 23.2335 18.4836 23.071 18.5559C23.0284 18.5749 22.9839 18.5839 22.9401 18.5839Z" fill="#E49775"/>
<path d="M23.8942 20.727C23.7708 20.727 23.653 20.6557 23.5996 20.5357L23.4502 20.2C23.3778 20.0374 23.451 19.8469 23.6135 19.7745C23.7761 19.7021 23.9666 19.7753 24.039 19.9379L24.1884 20.2735C24.2608 20.4361 24.1876 20.6266 24.0251 20.699C23.9825 20.718 23.938 20.727 23.8942 20.727Z" fill="#E49775"/>
<path d="M24.8483 22.87C24.725 22.87 24.6072 22.7987 24.5538 22.6787L24.4043 22.3431C24.3319 22.1805 24.405 21.99 24.5676 21.9176C24.7302 21.8452 24.9207 21.9183 24.9931 22.0809L25.1426 22.4166C25.215 22.5792 25.1418 22.7696 24.9793 22.842C24.9367 22.861 24.8922 22.87 24.8483 22.87Z" fill="#E49775"/>
</svg>
