<svg width="54" height="55" viewBox="0 0 54 55" fill="none" xmlns="http://www.w3.org/2000/svg">
<g filter="url(#filter0_d_2414_47026)">
<path d="M27 35.5C33.6274 35.5 39 30.237 39 23.7448C39 17.2527 33.6274 11.9897 27 11.9897C20.3726 11.9897 15 17.2527 15 23.7448C15 30.237 20.3726 35.5 27 35.5Z" fill="white"/>
</g>
<path d="M29.9667 26.207C29.9667 26.207 30.0989 27.688 26.9808 28.8172C26.9808 28.8172 29.4186 28.9468 30.1556 30.5944C30.1745 30.6684 31.5919 27.0771 29.9667 26.207Z" fill="white"/>
<path d="M23.9954 26.207C22.3891 27.0771 23.7875 30.6499 23.8253 30.5944C24.5434 28.9653 27.0001 28.8172 27.0001 28.8172C23.8631 27.688 23.9954 26.207 23.9954 26.207Z" fill="white"/>
<mask id="mask0_2414_47026" style="mask-type:alpha" maskUnits="userSpaceOnUse" x="15" y="11" width="24" height="25">
<path d="M27 35.0102C33.6274 35.0102 39 29.7473 39 23.2551C39 16.7629 33.6274 11.5 27 11.5C20.3726 11.5 15 16.7629 15 23.2551C15 29.7473 20.3726 35.0102 27 35.0102Z" fill="white"/>
<path d="M29.9667 25.7173C29.9667 25.7173 30.0989 27.1982 26.9808 28.3275C26.9808 28.3275 29.4186 28.4571 30.1556 30.1046C30.1745 30.1787 31.5919 26.5873 29.9667 25.7173Z" fill="white"/>
<path d="M23.9954 25.7173C22.3891 26.5873 23.7875 30.1602 23.8253 30.1046C24.5434 28.4756 27.0001 28.3275 27.0001 28.3275C23.8631 27.1982 23.9954 25.7173 23.9954 25.7173Z" fill="white"/>
</mask>
<g mask="url(#mask0_2414_47026)">
<path d="M35.7228 36.7034V38.8327C35.7228 39.0725 35.5246 39.2666 35.2799 39.2666H19.1127C18.868 39.2666 18.6698 39.0725 18.6698 38.8327V36.7034C18.6698 35.066 19.6636 33.6552 21.0926 33.019C20.5096 32.5646 19.6209 31.9538 18.9743 30.6397C18.0737 28.812 18.2279 26.6558 19.3751 24.9681C19.9986 24.0515 20.3308 22.9754 20.3308 21.8744V19.5243C20.3308 16.5288 22.8096 14.1006 25.8675 14.1006H28.5251C31.583 14.1006 34.0618 16.5288 34.0618 19.5243C34.0618 22.0131 33.9997 22.5005 34.306 23.4901C34.7381 24.8895 35.3089 25.0626 35.7488 26.4867C36.4404 28.7253 35.6754 31.1667 33.7905 32.6367L33.3 33.019C34.729 33.6552 35.7228 35.066 35.7228 36.7034Z" fill="#FFDFBA"/>
<path d="M35.723 36.7034V38.8328C35.723 39.0724 35.5247 39.2667 35.28 39.2667H19.1129C18.8682 39.2667 18.6699 39.0724 18.6699 38.8328V36.7034C18.6699 34.4709 20.5175 32.659 22.7986 32.659C23.138 32.659 23.4603 32.5868 23.7499 32.4578L23.7637 32.4871L26.9253 34.8848C27.0849 35.0058 27.308 35.0058 27.4676 34.8848L30.6292 32.4871L30.6431 32.4578C30.9326 32.5868 31.2549 32.659 31.5943 32.659C33.8666 32.659 35.723 34.4623 35.723 36.7034V36.7034Z" fill="#FFAA64"/>
<path d="M32.2585 22.0333C32.4937 22.0465 32.6778 22.2357 32.6778 22.4665V25.0637C32.6778 27.302 31.2798 29.2204 29.2921 30.0264C25.6978 31.4879 21.7151 28.8915 21.7151 25.0637V22.5042C21.7151 22.2499 21.9374 22.0489 22.196 22.0719C24.8529 22.3079 27.4693 21.6506 29.6663 20.2008C29.9162 20.0359 30.2602 20.158 30.3391 20.4429C30.6124 21.4297 31.3578 21.983 32.2585 22.0333Z" fill="#FFEBD2"/>
<path fill-rule="evenodd" clip-rule="evenodd" d="M26.8937 28.4816C26.6069 28.4312 26.382 28.2695 26.2028 28.1321C26.1092 28.0603 25.9868 28.0969 25.9294 28.2139C25.872 28.3308 25.9013 28.4838 25.9949 28.5555C26.1801 28.6976 26.4646 28.9079 26.8384 28.9736C27.2182 29.0404 27.6703 28.9551 28.1908 28.5555C28.2843 28.4837 28.3136 28.3307 28.2561 28.2138C28.1986 28.0969 28.0762 28.0603 27.9827 28.1321C27.5341 28.4765 27.1744 28.531 26.8937 28.4816Z" fill="#E59B6A"/>
<path fill-rule="evenodd" clip-rule="evenodd" d="M29.4819 23.34C29.1948 23.3704 28.9668 23.4897 28.7849 23.5915C28.6899 23.6447 28.5688 23.6123 28.5144 23.5191C28.46 23.426 28.493 23.3074 28.588 23.2543C28.776 23.1491 29.0647 22.9936 29.4387 22.9539C29.8189 22.9135 30.2673 22.9942 30.7763 23.3226C30.8677 23.3816 30.8932 23.502 30.833 23.5916C30.7729 23.6811 30.65 23.7059 30.5586 23.6468C30.1199 23.3638 29.7628 23.3101 29.4819 23.34Z" fill="#E59B6A"/>
<path fill-rule="evenodd" clip-rule="evenodd" d="M24.3436 23.34C24.0565 23.3704 23.8285 23.4897 23.6466 23.5915C23.5516 23.6447 23.4305 23.6123 23.3761 23.5191C23.3217 23.426 23.3547 23.3074 23.4497 23.2543C23.6377 23.1491 23.9264 22.9936 24.3004 22.9539C24.6806 22.9135 25.129 22.9942 25.638 23.3226C25.7294 23.3816 25.7548 23.502 25.6947 23.5916C25.6346 23.6811 25.5117 23.7059 25.4203 23.6468C24.9816 23.3638 24.6245 23.3101 24.3436 23.34Z" fill="#E59B6A"/>
<ellipse cx="24.534" cy="24.5769" rx="0.495498" ry="0.485386" fill="#003853"/>
<ellipse cx="29.6939" cy="24.5769" rx="0.495498" ry="0.485386" fill="#003853"/>
<path fill-rule="evenodd" clip-rule="evenodd" d="M27.0967 25.2192C27.251 25.2192 27.376 25.3327 27.376 25.4727V26.6896H27.8228C27.977 26.6896 28.102 26.8031 28.102 26.9431C28.102 27.0831 27.977 27.1966 27.8228 27.1966H27.0967C26.9425 27.1966 26.8175 27.0831 26.8175 26.9431V25.4727C26.8175 25.3327 26.9425 25.2192 27.0967 25.2192Z" fill="#E59B6A"/>
<path d="M33.7912 32.6367L33.3007 33.019C32.7808 32.788 32.2033 32.6589 31.5948 32.6589C30.3308 32.6589 29.301 31.659 29.301 30.4167V30.0463L29.2927 30.0262C31.2803 29.2203 32.6784 27.3019 32.6784 25.0635V22.4663C32.6784 22.2356 32.4943 22.0463 32.2591 22.0332C31.3639 21.9832 30.6148 21.4359 30.3397 20.4428C30.2608 20.158 29.9168 20.0358 29.6669 20.2007C27.4713 21.6496 24.8551 22.3079 22.1966 22.0718C21.938 22.0489 21.7157 22.2498 21.7157 22.5041V25.0636C21.7157 27.302 23.1137 29.2203 25.1014 30.0263L25.0931 30.0464V30.4168C25.0931 31.6589 24.0635 32.659 22.7992 32.659C22.1907 32.659 21.6132 32.788 21.0933 33.0191L20.6028 32.6367C18.2214 30.7779 17.6911 27.4465 19.3759 24.9681C19.9993 24.0515 20.3315 22.9755 20.3315 21.8744V19.5243C20.3315 16.5289 22.8104 14.1006 25.8682 14.1006H28.5258C31.5836 14.1006 34.0625 16.5289 34.0625 19.5243V21.8744C34.0625 22.9741 34.3947 24.0515 35.0182 24.9681C36.709 27.4555 36.1636 30.7865 33.7912 32.6367V32.6367Z" fill="#42434D"/>
<path d="M29.3633 30.937C27.9992 31.4964 26.5002 31.5397 25.0303 30.937C25.1054 30.6319 25.0928 30.4342 25.0928 30.0464L25.1011 30.0264C26.4345 30.5685 27.9565 30.5696 29.2924 30.0264L29.3007 30.0464C29.3007 30.4344 29.2882 30.632 29.3633 30.937Z" fill="#FFD6A6"/>
<path d="M31.026 14.6843C31.5914 14.9652 31.3457 15.8106 30.7145 15.7521C30.5405 15.7359 30.3641 15.7277 30.1858 15.7277H27.5281C24.4703 15.7277 21.9914 18.156 21.9914 21.1514V21.8114C21.9914 22.201 21.7146 22.1884 21.7146 22.5041C21.7146 25.369 21.7265 25.1876 21.6835 25.3112C21.2492 26.5629 20.7276 26.7441 20.3044 28.1138C20.0739 28.8599 20.0058 29.6282 20.0856 30.3738C20.1508 30.9824 19.2858 31.2735 18.9739 30.6397C18.0798 28.8251 18.2198 26.6672 19.3748 24.9681C19.9982 24.0515 20.3304 22.9754 20.3304 21.8744V19.5243C20.3304 16.5289 22.8093 14.1006 25.8671 14.1006H28.5248C29.4249 14.1006 30.2747 14.311 31.026 14.6843V14.6843Z" fill="#4D4E59"/>
<path d="M24.6769 33.1796C24.9396 33.3789 24.8008 33.7967 24.4685 33.798C22.1246 33.8065 20.3309 35.6501 20.3309 37.8424V39.2667H19.1129C18.8682 39.2667 18.6699 39.0724 18.6699 38.8328V36.7034C18.6699 34.4709 20.5175 32.659 22.7986 32.659C23.138 32.659 23.4603 32.5868 23.7499 32.4578L23.7637 32.4871L24.6769 33.1796Z" fill="#FFBD7B"/>
<path d="M29.7158 33.1796C29.4531 33.3789 29.5919 33.7967 29.9242 33.798C32.2681 33.8065 34.0618 35.6501 34.0618 37.8424V39.2667H35.2798C35.5245 39.2667 35.7228 39.0724 35.7228 38.8328V36.7034C35.7228 34.4709 33.8752 32.659 31.5941 32.659C31.2547 32.659 30.9324 32.5868 30.6429 32.4578L30.629 32.4871L29.7158 33.1796Z" fill="#FAA157"/>
</g>
<defs>
<filter id="filter0_d_2414_47026" x="0" y="0.989746" width="54" height="53.5102" filterUnits="userSpaceOnUse" color-interpolation-filters="sRGB">
<feFlood flood-opacity="0" result="BackgroundImageFix"/>
<feColorMatrix in="SourceAlpha" type="matrix" values="0 0 0 0 0 0 0 0 0 0 0 0 0 0 0 0 0 0 127 0" result="hardAlpha"/>
<feOffset dy="4"/>
<feGaussianBlur stdDeviation="7.5"/>
<feColorMatrix type="matrix" values="0 0 0 0 0 0 0 0 0 0 0 0 0 0 0 0 0 0 0.15 0"/>
<feBlend mode="normal" in2="BackgroundImageFix" result="effect1_dropShadow_2414_47026"/>
<feBlend mode="normal" in="SourceGraphic" in2="effect1_dropShadow_2414_47026" result="shape"/>
</filter>
</defs>
</svg>
