<svg width="78" height="78" viewBox="0 0 78 78" fill="none" xmlns="http://www.w3.org/2000/svg">
<g filter="url(#filter0_d_2785_6969)">
<path d="M39 53C48.9411 53 57 44.9411 57 35C57 25.0589 48.9411 17 39 17C29.0589 17 21 25.0589 21 35C21 44.9411 29.0589 53 39 53Z" fill="white"/>
<path d="M39 53.5C49.2173 53.5 57.5 45.2173 57.5 35C57.5 24.7827 49.2173 16.5 39 16.5C28.7827 16.5 20.5 24.7827 20.5 35C20.5 45.2173 28.7827 53.5 39 53.5Z" stroke="white"/>
</g>
<path d="M39.0849 42.7383C39.0566 42.7383 39.0282 42.7666 38.9715 42.7666C38.9432 42.7666 38.9148 42.7383 38.8582 42.7383H39.0849Z" fill="#E6E9EE"/>
<path d="M53.4852 45.6295C50.2253 50.0799 44.9245 52.9996 38.9718 52.9996C33.019 52.9996 27.7466 50.1083 24.4584 45.6295C27.0096 42.9083 30.4678 41.4626 33.3592 40.7256C33.104 42.7949 34.1812 45.5728 34.2096 45.4878C35.2867 42.9933 38.9434 42.7665 38.9434 42.7665C38.9434 42.7665 42.6001 42.965 43.7056 45.4878C43.734 45.5445 44.8111 42.7949 44.556 40.7256C47.4757 41.4626 50.934 42.9083 53.4852 45.6295Z" fill="#E6E9EE"/>
<path d="M43.4507 38.8267C43.4507 39.1952 43.224 41.1511 39.0854 42.7385H38.8586C34.72 41.1511 34.4932 39.1952 34.4932 38.8267C34.5216 38.0897 34.6917 37.3527 35.0035 36.6724C36.1373 37.948 37.498 38.7983 38.972 38.7983C40.4177 38.7983 41.8066 37.9763 42.9405 36.6724C43.2523 37.3527 43.4507 38.0897 43.4507 38.8267Z" fill="#FDC9A6"/>
<path d="M41.4377 43.3902L40.5306 45.2044H37.4125L36.5054 43.3902C37.7526 42.8516 38.9715 42.7666 38.9715 42.7666C38.9715 42.7666 40.2188 42.8516 41.4377 43.3902Z" fill="#B51016"/>
<path d="M36.4489 52.8298C37.2709 52.9431 38.1213 52.9998 39.0001 52.9998C39.8505 52.9998 40.7009 52.9431 41.5513 52.8298L40.5591 45.2329H37.441L36.4489 52.8298Z" fill="#DE1F26"/>
<path d="M43.4499 38.77C43.4499 38.77 43.6483 41.0377 38.9711 42.7669C38.9711 42.7669 42.6278 42.9653 43.7334 45.4881C43.7617 45.6015 45.8877 40.1023 43.4499 38.77Z" fill="white"/>
<path d="M34.4929 38.77C32.0835 40.1023 34.1811 45.5732 34.2378 45.4881C35.315 42.9936 39.0001 42.7669 39.0001 42.7669C34.2945 41.0377 34.4929 38.77 34.4929 38.77Z" fill="white"/>
<path d="M43.1673 37.2393C41.9767 38.5149 40.5594 39.3369 38.972 39.3369C37.3846 39.3369 35.9673 38.5149 34.7767 37.2393C34.8334 37.0409 34.9185 36.8424 35.0035 36.6724C36.1374 37.948 37.498 38.6817 38.972 38.6817C40.446 38.6817 41.8066 37.9763 42.9405 36.6724C43.0255 36.8424 43.1106 37.0409 43.1673 37.2393Z" fill="#E59B6A"/>
<path d="M46.7382 32.8599C46.1429 33.8521 45.2359 34.4473 44.5555 34.334C43.1949 36.8568 41.2107 38.7277 38.9996 38.7277C36.7886 38.7277 34.8044 36.8285 33.4437 34.334C32.7634 34.419 31.8563 33.8521 31.2611 32.8599C30.5524 31.6977 30.5241 30.4222 31.2044 29.997C31.3745 29.9119 31.5445 29.8552 31.743 29.8836C32.1965 31.0458 32.8201 31.7544 32.8201 31.7544C32.1682 28.1544 34.8327 27.7576 34.3792 24.2993C34.3792 24.2993 36.0516 28.0127 40.8422 25.4048L40.4878 26.1064C47.1776 24.604 44.8957 32.4914 44.839 32.6899C45.6044 31.7261 46.1146 30.7623 46.3981 29.8836C46.5114 29.8836 46.6532 29.9403 46.7382 29.997C47.4752 30.3938 47.4469 31.6977 46.7382 32.8599Z" fill="#FDC9A6"/>
<path d="M42.8269 20.5999C43.3655 20.5432 44.2442 21.0251 44.2442 21.0251C41.8348 18.2755 37.8946 20.0329 37.8946 20.0329C39.2269 18.8991 40.4174 19.0125 40.4174 19.0125C34.7765 18.1621 33.8127 21.5353 33.8127 21.5353C33.5576 21.1384 33.5576 20.5715 33.5859 20.2881C33.1891 20.9684 33.6143 22.329 33.6143 22.329C33.2174 21.3369 31.8284 21.5069 31.8284 21.5069C33.019 21.7054 33.2174 22.4424 33.2174 22.4424C30.241 23.5479 30.7513 26.6377 30.7513 26.6377L31.4599 25.7873C30.5812 29.1605 32.8206 31.7684 32.8206 31.7684C32.1686 28.1684 34.8332 27.7715 34.3796 24.3132C34.3796 24.3132 36.0521 28.0266 40.8426 25.4188L40.4741 26.1274C47.249 24.5967 44.8112 32.5904 44.8112 32.5904C46.76 31.0668 46.9088 26.5243 46.9088 26.5243L47.1923 27.6581C47.9576 22.5558 42.8269 20.5999 42.8269 20.5999Z" fill="#42434D"/>
<path fill-rule="evenodd" clip-rule="evenodd" d="M38.9285 36.1496C38.5194 36.092 38.1988 35.9075 37.9432 35.7507C37.8098 35.6688 37.6353 35.7106 37.5534 35.844C37.4715 35.9775 37.5133 36.152 37.6467 36.2339C37.9108 36.396 38.3166 36.636 38.8495 36.711C39.3912 36.7872 40.0358 36.6898 40.778 36.2338C40.9114 36.1519 40.9531 35.9773 40.8711 35.8439C40.7892 35.7105 40.6146 35.6688 40.4812 35.7508C39.8416 36.1438 39.3287 36.2059 38.9285 36.1496Z" fill="#E59B6A"/>
<path fill-rule="evenodd" clip-rule="evenodd" d="M41.602 29.0833C41.1914 29.1281 40.8652 29.3025 40.6048 29.4513C40.4689 29.5289 40.2958 29.4817 40.2181 29.3458C40.1404 29.2099 40.1876 29.0367 40.3236 28.959C40.5926 28.8053 41.0056 28.578 41.5406 28.5197C42.0844 28.4605 42.7256 28.5779 43.4533 29.0568C43.584 29.1428 43.6203 29.3186 43.5342 29.4494C43.4481 29.5802 43.2724 29.6164 43.1416 29.5303C42.5145 29.1176 42.0038 29.0395 41.602 29.0833Z" fill="#E59B6A"/>
<path fill-rule="evenodd" clip-rule="evenodd" d="M36.3181 29.0833C35.9074 29.1281 35.5812 29.3025 35.3209 29.4513C35.1849 29.5289 35.0118 29.4817 34.9341 29.3458C34.8564 29.2099 34.9036 29.0367 35.0396 28.959C35.3086 28.8053 35.7216 28.578 36.2566 28.5197C36.8005 28.4605 37.4417 28.5779 38.1694 29.0568C38.3001 29.1428 38.3364 29.3186 38.2503 29.4494C38.1642 29.5802 37.9884 29.6164 37.8577 29.5303C37.2306 29.1176 36.7199 29.0395 36.3181 29.0833Z" fill="#E59B6A"/>
<ellipse cx="36.5903" cy="30.8898" rx="0.708664" ry="0.708663" fill="#003853"/>
<ellipse cx="41.9056" cy="30.8898" rx="0.708664" ry="0.708663" fill="#003853"/>
<path fill-rule="evenodd" clip-rule="evenodd" d="M39.2126 31.5986C39.4083 31.5986 39.5669 31.7573 39.5669 31.953V33.6538H40.1339C40.3296 33.6538 40.4882 33.8124 40.4882 34.0081C40.4882 34.2038 40.3296 34.3624 40.1339 34.3624H39.2126C39.0169 34.3624 38.8583 34.2038 38.8583 34.0081V31.953C38.8583 31.7573 39.0169 31.5986 39.2126 31.5986Z" fill="#E59B6A"/>
<defs>
<filter id="filter0_d_2785_6969" x="0" y="0" width="78" height="78" filterUnits="userSpaceOnUse" color-interpolation-filters="sRGB">
<feFlood flood-opacity="0" result="BackgroundImageFix"/>
<feColorMatrix in="SourceAlpha" type="matrix" values="0 0 0 0 0 0 0 0 0 0 0 0 0 0 0 0 0 0 127 0" result="hardAlpha"/>
<feOffset dy="4"/>
<feGaussianBlur stdDeviation="10"/>
<feColorMatrix type="matrix" values="0 0 0 0 0 0 0 0 0 0 0 0 0 0 0 0 0 0 0.1 0"/>
<feBlend mode="normal" in2="BackgroundImageFix" result="effect1_dropShadow_2785_6969"/>
<feBlend mode="normal" in="SourceGraphic" in2="effect1_dropShadow_2785_6969" result="shape"/>
</filter>
</defs>
</svg>
