<svg width="41" height="40" viewBox="0 0 41 40" fill="none" xmlns="http://www.w3.org/2000/svg">
<path d="M32.4645 22.417C33.0207 22.6209 33.3068 23.2383 33.1021 23.7944L32.4847 25.4764C32.2808 26.0334 31.6634 26.3187 31.1073 26.1148C30.6116 25.9326 30.332 25.4232 30.4206 24.9211L28.5395 24.3747C28.1389 25.1234 27.6368 25.8093 27.0509 26.4146L28.1591 28.0531C28.5975 27.8629 29.1246 27.9822 29.4325 28.3763C29.7976 28.8429 29.7146 29.5175 29.2471 29.8826L27.8359 30.986C27.3684 31.3511 26.6938 31.2689 26.3287 30.8014C26.0039 30.3856 26.0346 29.8061 26.3747 29.4257L25.065 27.9693C24.2477 28.4432 23.3499 28.7938 22.3964 28.9953L22.4005 30.9715C22.8704 31.0585 23.2411 31.4519 23.2758 31.9499C23.3177 32.5415 22.8728 33.0549 22.2812 33.0968L20.4944 33.2242C19.9028 33.2661 19.3894 32.8204 19.3475 32.2288C19.3096 31.7025 19.6594 31.2383 20.1535 31.1134L19.881 29.1726C17.9927 29.0452 16.2631 28.3441 14.8639 27.2407L12.0463 23.4881C11.719 22.6757 11.5047 21.8061 11.4241 20.8978L9.45992 20.6648C9.31727 21.121 8.88285 21.4418 8.38316 21.4176C7.79158 21.3886 7.3346 20.8849 7.36361 20.2925L7.45146 18.5032C7.48048 17.9109 7.98421 17.4547 8.57659 17.4837C9.10369 17.5095 9.52279 17.9117 9.58727 18.4178L11.5466 18.3791C11.7061 17.5345 11.9818 16.7309 12.3566 15.9862L10.8123 14.7539C10.4505 15.0658 9.91207 15.1093 9.50103 14.8256C9.01261 14.4879 8.89091 13.8198 9.22781 13.3322L10.2465 11.8581C10.5834 11.3696 11.2524 11.2479 11.74 11.5848C12.1744 11.8847 12.3179 12.448 12.1059 12.9123L13.792 13.9125C14.4384 13.2097 15.1944 12.6092 16.0318 12.1369L15.4386 10.251C14.9647 10.3082 14.494 10.043 14.311 9.57799C14.095 9.0259 14.3666 8.40289 14.9187 8.1869L16.5871 7.53326C17.1391 7.31646 17.7622 7.58887 17.9782 8.14096C18.1708 8.63259 17.9757 9.17904 17.5413 9.44581L18.3795 11.2157C19.0598 11.0537 19.7698 10.9675 20.5 10.9675C22.5802 10.9675 24.4976 11.6654 26.0313 12.8389L28.9038 16.5496C29.3608 17.636 29.613 18.8288 29.613 20.0805C29.613 20.7414 29.5421 21.3862 29.4083 22.0068L31.2129 22.8143C31.4845 22.421 31.9955 22.2445 32.4645 22.417Z" fill="#F6AB30"/>
<path d="M19.693 17.6654C19.6456 17.4035 19.5484 17.1497 19.3972 16.9167C18.7223 15.8761 17.2349 15.6423 16.0751 16.3946C14.9153 17.1468 14.5222 18.6002 15.1972 19.6409C15.4213 19.9865 15.7354 20.2425 16.0971 20.4036L17.965 20.7989L19.9574 19.4409L19.693 17.6654Z" fill="black" fill-opacity="0.1"/>
<path d="M25.1243 21.7937C26.1014 21.7937 26.8935 21.0016 26.8935 20.0246C26.8935 19.0475 26.1014 18.2554 25.1243 18.2554C24.1472 18.2554 23.3551 19.0475 23.3551 20.0246C23.3551 21.0016 24.1472 21.7937 25.1243 21.7937Z" fill="black" fill-opacity="0.1"/>
<path d="M22.4005 30.9715L22.3982 29.8639C18.0709 28.6706 14.8925 24.7067 14.8925 19.9999C14.8925 16.0899 17.0866 12.6918 20.3099 10.9694C19.6468 10.9831 19.0004 11.0679 18.3796 11.2157L17.5414 9.44581C17.9758 9.17904 18.1709 8.63259 17.9783 8.14096C17.7623 7.58887 17.1392 7.31646 16.5872 7.53326L14.9188 8.1869C14.3667 8.40289 14.0951 9.0259 14.3111 9.57799C14.4941 10.043 14.9647 10.3082 15.4387 10.251L16.0318 12.1369C15.1944 12.6092 14.4385 13.2097 13.7921 13.9125L12.1059 12.9123C12.3179 12.448 12.1744 11.8847 11.74 11.5848C11.2524 11.2479 10.5834 11.3696 10.2466 11.8581L9.22781 13.3322C8.89092 13.8198 9.01262 14.4879 9.50103 14.8256C9.91207 15.1093 10.4505 15.0658 10.8123 14.7539L12.3566 15.9862C11.9818 16.7309 11.7062 17.5345 11.5466 18.3791L9.58727 18.4178C9.52279 17.9117 9.10369 17.5095 8.57659 17.4837C7.98421 17.4547 7.48048 17.9109 7.45146 18.5032L7.36361 20.2925C7.3346 20.8849 7.79158 21.3886 8.38316 21.4176C8.88286 21.4418 9.31727 21.121 9.45993 20.6648L11.4241 20.8978C11.5047 21.8061 11.719 22.6757 12.0463 23.4881L14.8639 27.2407C16.2631 28.3441 17.9927 29.0452 19.8811 29.1726L20.1535 31.1134C19.6594 31.2383 19.3096 31.7025 19.3475 32.2288C19.3894 32.8204 19.9028 33.2661 20.4944 33.2242L22.2812 33.0968C22.8728 33.0549 23.3177 32.5415 23.2758 31.9499C23.2411 31.4519 22.8704 31.0585 22.4005 30.9715Z" fill="black" fill-opacity="0.1"/>
<path d="M20.5 0C31.5457 0 40.5 8.95426 40.5 20C40.5 31.0457 31.5457 40 20.5 40C9.45426 40 0.5 31.0457 0.5 20C0.5 8.95426 9.45426 0 20.5 0ZM20.2276 35.7381C29.2576 35.8912 36.6112 28.3401 36.2252 19.3173C36.1285 17.0558 35.5546 14.9184 34.602 13.0018C34.4537 12.7044 34.0724 12.6141 33.8081 12.8156L10.0378 30.916C9.77262 31.1175 9.75972 31.51 10.008 31.7324C12.7297 34.168 16.3033 35.6712 20.2276 35.7381ZM30.9622 9.08402C31.2274 8.88253 31.2403 8.49003 30.992 8.26758C28.2703 5.83196 24.6967 4.32883 20.7724 4.26194C11.7424 4.10881 4.38878 11.6599 4.77483 20.6835C4.87155 22.9442 5.4454 25.0816 6.39805 26.9982C6.54634 27.2956 6.92756 27.3859 7.19192 27.1844L30.9622 9.08402Z" fill="#E74A2F"/>
<path d="M22.6467 26.6528C23.337 26.6528 23.8966 26.0932 23.8966 25.403C23.8966 24.7127 23.337 24.1531 22.6467 24.1531C21.9564 24.1531 21.3969 24.7127 21.3969 25.403C21.3969 26.0932 21.9564 26.6528 22.6467 26.6528Z" fill="black" fill-opacity="0.1"/>
</svg>
