<svg width="41" height="41" viewBox="0 0 41 41" fill="none" xmlns="http://www.w3.org/2000/svg">
<g clip-path="url(#clip0_2754_5215)">
<circle cx="20.4683" cy="20.165" r="20" fill="#686D9F"/>
<path d="M21.1094 40.155L11.7357 30.7812V21.56L9.74036 19.5647L20.3031 9.00195L25.2182 13.9171L29.6146 9.52066L40.4672 20.3732C40.3577 31.109 31.7894 39.8186 21.1094 40.155Z" fill="black" fill-opacity="0.3"/>
<path fill-rule="evenodd" clip-rule="evenodd" d="M26.1704 14.2693L27.1674 16.2398L28.8832 16.8015V11.2378L27.9642 10.3081L26.1704 11.2378V14.2693Z" fill="#DDDAEC"/>
<path fill-rule="evenodd" clip-rule="evenodd" d="M26.1704 11.2378H28.8832H29.3249C29.5633 11.2378 29.7577 11.0434 29.7577 10.8062V9.70071C29.7577 9.46356 29.5633 9.26904 29.3249 9.26904H25.7288C25.4904 9.26904 25.2959 9.46352 25.2959 9.70071V10.8062C25.2959 11.0433 25.4904 11.2378 25.7288 11.2378H26.1704V11.2378Z" fill="#375E7D"/>
<path fill-rule="evenodd" clip-rule="evenodd" d="M26.1704 12.2316H27.592C28.0927 12.2316 28.0224 12.6406 28.0224 13.1313V15.9984L28.8832 16.8015V11.2378H26.1704V12.2316Z" fill="#BEB9DD"/>
<path fill-rule="evenodd" clip-rule="evenodd" d="M28.8492 10.8062C28.8492 11.0433 28.6535 11.2378 28.4164 11.2378H28.8832H29.3248C29.5632 11.2378 29.7577 11.0433 29.7577 10.8062V9.70071C29.7577 9.46356 29.5632 9.26904 29.3248 9.26904H28.4164C28.6535 9.26904 28.8492 9.46352 28.8492 9.70071V10.8062Z" fill="#2B4D66"/>
<path fill-rule="evenodd" clip-rule="evenodd" d="M28.5318 31.165C28.9019 31.165 29.2056 30.8614 29.2056 30.4912V19.7541H30.897C31.2308 19.7579 31.4629 19.6274 31.4679 19.4191V19.4053C31.4654 19.2873 31.3901 19.1443 31.222 18.9874L28.8832 16.8016L21.12 9.5515C20.844 9.29304 20.6558 9.16504 20.4689 9.16504C20.2807 9.16504 20.0937 9.29304 19.8177 9.5515L9.71442 18.9874C9.54628 19.1443 9.471 19.2873 9.46851 19.4053V19.4191C9.47353 19.6274 9.70565 19.7579 10.0394 19.7541H11.7321V30.4912C11.7321 30.8614 12.0345 31.165 12.4046 31.165H28.5318Z" fill="white"/>
<path fill-rule="evenodd" clip-rule="evenodd" d="M16.342 25.2715L15.7836 25.4434C14.5465 25.8248 14.0947 27.0508 14.0947 28.2039V31.1652H16.5063C19.4207 28.9445 16.342 25.2715 16.342 25.2715Z" fill="#3BC3A4"/>
<path fill-rule="evenodd" clip-rule="evenodd" d="M24.5945 25.2715C24.5945 25.2715 21.6046 27.9411 24.4301 31.1652H26.8417V28.2039C26.8417 27.0495 26.3913 25.8248 25.1528 25.4434L24.5945 25.2715Z" fill="#3BC3A4"/>
<path fill-rule="evenodd" clip-rule="evenodd" d="M16.7799 19.9575H16.0885C15.7685 19.9575 15.505 20.2173 15.505 20.5385V20.8622C15.505 21.4858 16.1261 21.8234 16.7648 21.8297H16.899C17.2956 21.2374 17.209 20.5699 16.7799 19.9575Z" fill="#FFBC85"/>
<path fill-rule="evenodd" clip-rule="evenodd" d="M18.6921 17.6362C18.5416 18.7831 17.1927 18.8496 16.7799 19.1671V21.0756C16.7799 21.319 16.8213 21.5737 16.8991 21.8297C17.1513 22.6616 17.7812 23.5199 18.5842 24.1033C18.8841 24.3204 19.2078 24.4998 19.5441 24.6241C19.8791 24.7483 20.174 24.8098 20.4688 24.8098C20.7637 24.8098 21.0586 24.7483 21.3923 24.6241C21.7298 24.4998 22.0535 24.3204 22.3522 24.1033C23.1552 23.5199 23.7851 22.6616 24.0373 21.8297C24.1151 21.5737 24.1577 21.319 24.1577 21.0756V19.1671C23.1239 16.9938 20.2443 18.8057 18.6921 17.6362Z" fill="#FFE5C1"/>
<path fill-rule="evenodd" clip-rule="evenodd" d="M24.0373 21.8297H24.1716C24.8102 21.8234 25.4313 21.4859 25.4313 20.8622V20.5385C25.4313 20.2173 25.1691 19.9575 24.8479 19.9575H24.1578C23.5003 20.4419 23.2694 21.0579 24.0373 21.8297Z" fill="#FFBC85"/>
<path fill-rule="evenodd" clip-rule="evenodd" d="M24.1578 19.9573C23.8604 19.3324 23.4112 19.0375 22.8843 18.9058V20.5495C22.8843 20.7929 22.7813 21.0477 22.7036 21.3049C22.4514 22.1368 21.8228 22.9939 21.0197 23.5773C20.7198 23.7944 20.3961 23.9738 20.0586 24.0981C19.7248 24.2223 19.43 24.2838 19.1351 24.2838C19.0297 24.2838 18.9243 24.2763 18.8164 24.2599C19.0485 24.4068 19.2932 24.531 19.5442 24.6238C19.8792 24.7481 20.174 24.8095 20.4689 24.8095C20.7638 24.8095 21.0586 24.7481 21.3924 24.6238C21.7299 24.4996 22.0536 24.3202 22.3523 24.1031C23.1553 23.5196 23.7852 22.6614 24.0374 21.8294C24.1151 21.5735 24.1578 21.3188 24.1578 21.0753V19.9573Z" fill="#FED1A3"/>
<path fill-rule="evenodd" clip-rule="evenodd" d="M16.7799 19.9575C17.1927 19.6401 18.5415 19.5735 18.6921 18.4267C18.923 17.8658 18.9041 16.3738 18.3445 15.7515C16.9831 15.9899 16.3997 17.0414 16.5804 18.4291L16.7799 19.9575Z" fill="#2B4D66"/>
<path fill-rule="evenodd" clip-rule="evenodd" d="M18.6921 18.4266C20.2442 19.596 23.1239 17.7842 24.1578 19.9574C24.3611 18.399 24.4062 16.8857 23.0172 15.705C21.7336 14.6146 18.9581 14.5744 18.3445 15.7514C18.0697 16.3951 18.0823 17.8883 18.6921 18.4266Z" fill="#375E7D"/>
<path fill-rule="evenodd" clip-rule="evenodd" d="M21.6835 15.179C22.9156 16.2268 23.0185 17.5355 22.8843 18.9057C23.4113 19.0375 23.8605 19.3324 24.1578 19.9572C24.3611 18.3988 24.4062 16.8855 23.0172 15.7048C22.5982 15.3497 22.0222 15.1063 21.4137 14.9795C21.509 15.041 21.5994 15.1087 21.6835 15.179Z" fill="#2B4D66"/>
<path d="M22.0825 21.2001C21.8991 21.2001 21.7505 21.0515 21.7505 20.8681V20.5795C21.7505 20.3961 21.8991 20.2476 22.0825 20.2476C22.2659 20.2476 22.4144 20.3962 22.4144 20.5795V20.8681C22.4144 21.0515 22.2658 21.2001 22.0825 21.2001Z" fill="#375E7D"/>
<path d="M18.9556 21.2001C18.7723 21.2001 18.6237 21.0515 18.6237 20.8681V20.5795C18.6237 20.3961 18.7723 20.2476 18.9556 20.2476C19.139 20.2476 19.2876 20.3962 19.2876 20.5795V20.8681C19.2877 21.0515 19.139 21.2001 18.9556 21.2001Z" fill="#375E7D"/>
<path d="M20.5188 22.9651C20.2364 22.9651 19.9709 22.8551 19.7711 22.6551C19.6414 22.5255 19.6414 22.3153 19.7711 22.1856C19.9007 22.056 20.1109 22.056 20.2406 22.1857C20.315 22.2601 20.4139 22.3011 20.5188 22.3011H20.5193C20.6239 22.3009 20.7219 22.2601 20.7956 22.1861C20.925 22.0562 21.1352 22.0557 21.2652 22.1851C21.3951 22.3145 21.3956 22.5247 21.2662 22.6547C21.0672 22.8545 20.8022 22.9648 20.52 22.9651C20.5196 22.9651 20.5192 22.9651 20.5188 22.9651Z" fill="#FFBC85"/>
<path fill-rule="evenodd" clip-rule="evenodd" d="M24.5944 29.5638H16.342V24.4129C16.342 24.1444 16.5629 23.9248 16.8314 23.9248H24.1064C24.3749 23.9248 24.5944 24.1444 24.5944 24.4129V29.5638Z" fill="#DDDAEC"/>
<path fill-rule="evenodd" clip-rule="evenodd" d="M22.2129 24.1996C22.6106 24.9889 22.8377 25.9011 22.8377 26.8723C22.8377 27.8523 22.6069 28.7708 22.2028 29.5638H24.5944V25.2712V24.4129C24.5944 24.1444 24.3748 23.9248 24.1063 23.9248H22.583H22.0636C22.1163 24.0152 22.1652 24.1068 22.2129 24.1996Z" fill="#BEB9DD"/>
<path fill-rule="evenodd" clip-rule="evenodd" d="M22.2029 29.564H16.342H16.0434C15.9141 29.564 15.8075 29.6706 15.8075 29.7999V30.4398C15.8075 30.83 16.1199 31.15 16.5064 31.1651H24.4301C24.8165 31.15 25.129 30.83 25.129 30.4398V29.7999C25.129 29.6706 25.0236 29.564 24.8931 29.564H24.5944H22.2029Z" fill="#BEB9DD"/>
<path fill-rule="evenodd" clip-rule="evenodd" d="M22.7375 29.7999V30.4398C22.7375 30.83 22.4263 31.15 22.0386 31.1651H24.4301C24.8166 31.15 25.129 30.83 25.129 30.4398V29.7999C25.129 29.6706 25.0236 29.564 24.8931 29.564H24.5945H22.5016C22.6321 29.564 22.7375 29.6706 22.7375 29.7999Z" fill="#A7A2D3"/>
<path d="M21.1464 27.1503H19.79C19.6066 27.1503 19.458 27.0017 19.458 26.8183C19.458 26.635 19.6066 26.4863 19.79 26.4863H21.1464C21.3298 26.4863 21.4784 26.635 21.4784 26.8183C21.4784 27.0017 21.3297 27.1503 21.1464 27.1503Z" fill="#375E7D"/>
<path fill-rule="evenodd" clip-rule="evenodd" d="M18.8389 10.465C19.8702 11.4814 20.7548 13.0461 21.4111 14.9784C21.4124 14.9784 21.4124 14.9797 21.4136 14.9797C22.0222 15.1064 22.5981 15.3498 23.0171 15.7049C24.4062 16.8857 24.361 18.3989 24.1577 19.9574H24.8478C25.1691 19.9574 25.4313 20.2171 25.4313 20.5384V20.8621C25.4313 21.4857 24.8102 21.8232 24.1715 21.8295H24.0373C23.8139 22.5661 23.2957 23.3227 22.6232 23.8911C22.6219 23.9024 22.6219 23.9137 22.6219 23.925H24.1063C24.3748 23.925 24.5944 24.1445 24.5944 24.4131V25.2714L25.1527 25.4433C26.3912 25.8247 26.8416 27.0494 26.8416 28.2038V31.165H28.5318C28.9019 31.165 29.2056 30.8614 29.2056 30.4912V19.7541H30.8969C31.2307 19.7579 31.4628 19.6274 31.4679 19.4191V19.4053C31.4654 19.2873 31.3901 19.1443 31.2219 18.9874L28.8831 16.8016L26.1704 14.2695L21.12 9.5515C20.844 9.29304 20.6558 9.16504 20.4688 9.16504C20.2806 9.16504 20.0936 9.29304 19.8176 9.5515L18.8389 10.465Z" fill="black" fill-opacity="0.1"/>
</g>
<defs>
<clipPath id="clip0_2754_5215">
<rect width="41" height="41" fill="white" transform="translate(0 0.000488281)"/>
</clipPath>
</defs>
</svg>
